<?xml version="1.0" encoding="utf-8"?>
<!-- Generator: Adobe Illustrator 16.0.0, SVG Export Plug-In . SVG Version: 6.00 Build 0)  -->
<!DOCTYPE svg PUBLIC "-//W3C//DTD SVG 1.1//EN" "http://www.w3.org/Graphics/SVG/1.1/DTD/svg11.dtd">
<svg version="1.1" id="Layer_1" xmlns="http://www.w3.org/2000/svg" xmlns:xlink="http://www.w3.org/1999/xlink" x="0px" y="0px"
	 width="1267px" height="740px" viewBox="0 0 1267 740" enable-background="new 0 0 1267 740" xml:space="preserve">
<image display="none" overflow="visible" width="2538" height="1360" xlink:href="../../../../../../Users/Kylen/Desktop/Screen Shot 2015-06-23 at 7.40.53 PM.png"  transform="matrix(0.5 0 0 0.5 0 22)">
</image>
<g>
	<g>
		<path fill="#E6E6E6" d="M1198.856,38.956c5.575,0.776,11.143,0.739,16.754,0.993c4.857,0.22,10.21,0.778,12.718,5.458
			c3.146,5.872-0.814,12.307-5.088,16.141c-4.242,3.805-9.648,6.166-14.238,9.507c1.683,0,3.364,0,5.047,0
			c-4.619-1.953-9.326,1.961-13.05,4.398c-6.684,4.373-13.042,9.371-18.821,14.883c-10.595,10.106-22.26,28.12-5.808,38.833
			c8.458,5.509,19.601,5.859,29.092,8.481c11.672,3.225,23.284,9.14,31.698,17.905c4.174,4.348,7.183,10.31,6.18,16.451
			c-0.993,6.083-5.338,10.967-9.691,15.006c-8.526,7.909-19.322,11.842-30.303,14.94c-9.159,2.585-18.552,4.855-26.686,10.003
			c-3.921,2.481-7.338,5.724-10.11,9.433c-2.981,3.989-7.446,10.678-7.446,15.839c0,9.746,11.918,13.205,19.452,14.135
			c11.534,1.423,23.564-0.754,35.032-1.918c6.352-0.645,6.414-10.651,0-10c-11.583,1.176-23.376,3.047-35.032,1.918
			c-3.22-0.312-7.395-1.192-9.195-4.156c-1.047-1.724,5.409-10.339,7.344-12.43c6.391-6.906,15.948-9.476,24.698-11.908
			c10.181-2.83,20.448-5.712,29.491-11.361c9.861-6.161,19.436-15.106,22.089-26.844c2.874-12.713-5.367-24.052-14.693-31.685
			c-8.809-7.209-20.283-12.241-31.213-15.261c-8.771-2.423-21.031-2.268-27.893-8.979c-3.088-3.02-0.209-8.365,1.521-11.243
			c3.309-5.503,8.269-10.045,13.083-14.209c4.42-3.822,9.175-7.26,14.104-10.392c1.512-0.961,3.055-1.884,4.654-2.693
			c0.531-0.249,0.41-0.207-0.363,0.126c1.463-0.614,0.71,1.006-3.182-0.64c2.152,0.91,3.898,0.836,5.816-0.56
			c5.993-4.363,12.725-7.405,17.912-12.857c5.798-6.094,7.77-14.637,5.538-22.689c-4.56-16.454-24.047-12.501-36.754-14.27
			C1195.211,28.436,1192.492,38.07,1198.856,38.956L1198.856,38.956z"/>
	</g>
</g>
<g>
	<g>
		<path fill="#E6E6E6" d="M421.297-107.581c2.896,10.641,11.559,18.278,17.008,27.559c2.375,4.046,3.558,8.64,1.369,13.039
			c-1.792,3.6-6.314,3.496-9.749,3.292c-9.342-0.557-18.082-4.451-27.564-4.679c-6.305-0.152-13.949,1.694-16.703,8.059
			c-2.626,6.07-0.775,12.759,1.58,18.614c2.99,7.434,7.06,14.371,11.096,21.271c4.442,7.594,8.706,14.973,11.141,23.506
			c1.768,6.195,3.339,15.918-2.977,20.174c-7.209,4.856-17.844,1.225-25.451-0.691c-9.586-2.414-19.809-4.855-29.687-2.912
			c-10.628,2.09-14.634,13.469-14.663,23.116c-0.038,12.867,7.061,26.353,15.12,35.974c14.513,17.327,40.74,19.84,54.441,37.887
			c4.983,6.564,7.883,15.227,5.588,23.358c-2.739,9.704-13.911,12.055-22.649,11.547c-6.21-0.361-12.325-2.911-18.052-5.145
			c-6.341-2.473-12.844-4.452-19.345-6.462c-9.924-3.069-19.846-6.236-29.984-8.534c-9.758-2.211-20.035-3.969-30.068-3.294
			c-10.337,0.694-16.707,5.497-21.324,14.772c-9.706,19.497,7.315,35.813,23.042,44.621c12.442,6.969,25.481,12.687,37.7,20.116
			c7.528,4.578,14.866,9.58,21.258,15.671c4.137,3.943,8.905,9.18,8.499,15.245c-0.48,7.163-9.063,11.457-15.068,12.831
			c-8.163,1.868-17.127,0.526-25.202-1.144c-13.447-2.781-26.013-8.755-39.71-10.415c-8.214-0.995-18.209-0.591-23.557,6.729
			c-5.413,7.409-5.363,18.431-1.961,26.605c8.398,20.177,31.406,27.654,43.118,45.335c9.205,13.896,6.817,28.431-2.56,41.506
			c-8.854,12.346-24.397,17.683-35.167,28.09c-4.644,4.487,2.435,11.551,7.071,7.07c9.036-8.731,20.776-13.886,30.073-22.328
			c9.437-8.568,15.873-21.345,16.714-34.042c0.81-12.218-5.462-23.471-12.9-32.623c-5.458-6.716-12.278-11.435-19.087-16.633
			c-6.945-5.303-13.731-11.363-17.689-19.281c-3.177-6.354-3.314-18.131,4.879-20.364c7.432-2.026,16.399,0.743,23.542,2.833
			c5.373,1.573,10.615,3.54,16.01,5.056c15.518,4.359,35.392,8.057,49.904-1.133c6.461-4.092,11.537-11.626,11.643-19.407
			c0.095-7.021-4.401-13.334-8.867-18.318c-11.636-12.987-28.344-21.862-43.582-29.866c-12.294-6.458-26.071-11.534-35.619-22.03
			c-7.414-8.151-6.36-18.438,0.963-26.373c2.03-2.2,6.188-2.411,8.944-2.596c5.106-0.343,10.316,0.184,15.364,0.928
			c21.906,3.229,43.746,10.885,64.37,18.635c11.582,4.352,23.762,5.676,35.336,0.703c7.814-3.357,13.141-11.076,14.399-19.34
			c3.179-20.882-13.211-36.316-29.768-45.589c-10.125-5.671-21.145-10.246-29.953-17.965c-9.445-8.278-16.446-22.825-15.791-35.451
			c0.216-4.168,2.046-9.061,6.277-10.407c4.549-1.447,9.999-0.513,14.581,0.278c9.659,1.667,18.896,5.179,28.761,5.592
			c8.448,0.354,16.807-2.601,21.448-9.939c4.623-7.309,3.348-17.165,1.276-25.047c-4.306-16.382-15.789-29.349-22.237-44.777
			c-1.329-3.18-2.569-6.606-2.541-10.085c0.006-0.787,0.32-1.779,0.576-2.082c0.687-0.811,1.982-1.241,3.386-1.568
			c10.517-2.457,22.139,3.833,32.655,4.461c12.37,0.738,21.374-8.793,19.683-21.22c-1.922-14.129-16.089-22.128-19.699-35.389
			C429.248-116.455,419.601-113.813,421.297-107.581L421.297-107.581z"/>
	</g>
</g>
<g>
	<g>
		<path fill="#E6E6E6" d="M95.54,513.156c2.897-21.889,21.382-37.925,41.746-43.784c23.32-6.71,45.6,2.972,61.041,20.772
			c8.078,9.312,13.348,20.921,15.34,33.047c1.785,10.864-1.492,21.421-6.504,30.973c-5.257,10.02-12.895,19.281-22.628,25.195
			c-4.051,2.461-8.542,3.644-13.127,4.67c-1.937,0.434-2.639-0.529-0.977,0.911c0.919,0.797,0.574,1.497,0.481,0.415
			c-0.104-1.205,0.013-2.44,0.093-3.643c1.713-25.681,27.861-42.757,49.729-51.157c11.006-4.228,22.738-6.485,34.532-5.562
			c12.822,1.005,25.106,8.277,37.048,12.579c27.579,9.933,56.338,14.235,85.142,7.126c22.553-5.566,31.595-26.535,32.536-47.983
			c0.382-8.713,0.138-18.143-4.696-25.707c-3.911-6.12-10.209-10.172-16.812-12.865c-15.911-6.491-34.339-6.439-51.223-5.518
			c-15.64,0.854-31.701,2.671-46.988,6.192c-11.953,2.753-23.013,8.648-34.539,12.7c-10.709,3.766-22.858,6.085-32.459-1.568
			c-8.607-6.86-13.3-18.011-18.053-27.615c-4.797-9.692-9.979-19.447-18.216-26.686c-19.734-17.341-48.495-11.144-70.842-3.688
			c-15.118,5.045-31.979,4.969-47.655,7.117c-15.613,2.14-32.839,5.696-44.404,17.255C12.342,448.092,9.975,469,19.961,482.475
			c5.176,6.984,12.47,11.902,19.408,16.968c6.084,4.442,12.729,9.458,14.84,17.038c2.442,8.771-3.985,15.632-9.683,21.335
			c-6.523,6.531-13.201,12.836-16.261,21.791c-3.197,9.355-0.406,19.8,7.514,25.645c3.506,2.587,8.177,3.78,12.339,4.79
			c5.531,1.341,11.115,2.536,16.665,3.797c13.426,3.049,26.725,6.828,38.641,13.899c10.582,6.279,22.521,16.579,22.812,29.837
			c0.247,11.226-7.96,21.71-14.37,30.178c-7.405,9.784-15.71,19.019-21.469,29.932c-1.148,2.175-0.788,5.734,1.794,6.841
			c11.281,4.836,23.573,5.6,35.701,6.108c12.938,0.543,25.48,1.014,38.186,3.733c10.757,2.303,21.328,5.006,32.38,3.407
			c11.59-1.677,20.422-10.035,28.366-17.938c17.281-17.19,33.351-36.934,55.683-47.802c5.851-2.848,18.116-8.331,21.599,0.319
			c3.098,7.694,2.737,16.531,4.918,24.502c2.736,10.003,9.178,17.834,18.936,21.445c9.544,3.532,20.705,1.896,30.624,1.68
			c14.615-0.321,29.478,1.812,43.904,3.922c7.442,1.088,14.856,2.359,22.258,3.687c7.381,1.322,15.242,2.174,22.437,4.289
			c8.788,2.582,17.318,5.715,26.505,6.609c10.065,0.98,17.386-6.264,20.406-15.33c2.84-8.525,1.252-19.246-1.739-27.529
			c-1.987-5.503-6.13-9.496-10.696-12.943c-7.373-5.566-16.292-9.095-24.762-12.6c-9.455-3.913-19.062-7.457-28.316-11.84
			c-7.869-3.727-15.877-8.076-21.519-14.873c-5.088-6.129-4.432-14.019-1.215-20.867c2.725-5.801-5.895-10.881-8.635-5.047
			c-5.946,12.659-4.88,25.399,5.122,35.572c10.002,10.174,24.504,15.615,37.447,20.87c12.296,4.993,26.291,9.183,36.889,17.459
			c4.876,3.807,6.308,6.961,7.684,12.78c1.076,4.552,1.499,9.447,0.672,14.071c-0.642,3.592-3.245,9.723-7.485,10.289
			c-8.55,1.141-18.35-3.3-26.343-5.845c-5.865-1.868-12.243-2.578-18.29-3.703c-7.989-1.486-15.996-2.873-24.024-4.127
			c-14.88-2.325-29.972-4.303-45.036-4.833c-10.292-0.361-20.958,1.729-31.093-0.692c-20.213-4.831-12.55-30.978-21.374-44.423
			c-5.298-8.073-15.256-7.947-23.599-5.534c-11.478,3.319-21.605,10.087-30.87,17.429c-12.075,9.568-22.523,21.035-33.251,32.037
			c-10.037,10.293-19.615,20.218-34.989,19.521c-6.724-0.306-13.389-2.181-19.935-3.605c-7.794-1.696-15.576-2.873-23.539-3.38
			c-15.599-0.993-33.258,0.85-47.959-5.453c0.598,2.28,1.196,4.561,1.794,6.841c10.055-19.053,28.155-33.183,35.321-53.863
			c8.142-23.498-12.016-42.689-31.066-52.654c-11.209-5.863-23.588-9.186-35.846-12.019c-5.162-1.192-10.317-2.383-15.491-3.526
			c-4.331-0.956-9.082-1.987-12.362-5.173c-6.967-6.764,0.096-18.133,5.005-23.538c6.03-6.637,13.41-12.242,17.497-20.422
			c9.043-18.096-5.982-32.223-19.34-41.94c-6.596-4.798-13.473-9.676-17.235-17.135c-3.452-6.846-1.987-16.547,1.381-23.145
			c7.063-13.837,25.208-17.507,39.091-19.813c16.247-2.699,32.968-2.835,48.999-6.797c10.996-2.719,21.001-7.112,32.481-8.042
			c12.668-1.027,25.995,1.447,35.25,10.663c7.72,7.686,12.041,18.475,16.851,28.056c5,9.958,10.796,19.559,19.97,26.187
			c20.272,14.646,46.785-2.359,66.582-9.122c15.023-5.131,32.135-6.493,47.872-7.614c16.82-1.198,35.043-1.564,51.017,4.621
			c5.403,2.092,10.982,5.96,13.274,11.486c3.554,8.569,2.144,20.662,0.312,29.482c-2.086,10.044-7.161,18.969-16.338,23.977
			c-5.519,3.011-12.407,3.929-18.52,4.926c-7.72,1.259-15.642,1.364-23.436,0.948c-14.393-0.769-28.483-4.581-42.068-9.199
			c-12.491-4.246-24.655-11.144-37.696-13.408c-23.265-4.041-47.84,5.126-67.022,17.802c-9.763,6.451-18.891,14.318-24.968,24.389
			c-3.505,5.808-6.237,11.981-7.019,18.765c-0.45,3.906-1.404,8.613,0.043,12.429c3.178,8.378,14.023,4.605,20.216,2.554
			c10.334-3.424,18.91-11.28,25.573-19.636c7.037-8.825,12.438-19.088,15.266-30.038c2.788-10.796,1.375-22.15-2.097-32.614
			c-10.108-30.468-40.478-54.716-73.261-51.876c-30.236,2.619-57.666,25.014-61.73,55.718
			C84.696,519.534,94.707,519.453,95.54,513.156L95.54,513.156z"/>
	</g>
</g>
<g>
	<g>
		<path fill="#E6E6E6" d="M931.483,67.447c19.795-10.977,51.206-8.594,68.44,6.524c15.429,13.535,15.743,36.216,16.655,55.089
			c1.014,20.969,0.365,46.379-15.628,61.971c-7.384,7.198-17.401,10.131-27.49,10.331c-7.008,0.138-13.789-1.385-20.735-1.885
			c-10.193-0.733-19.909-6.493-20.087-17.542c-0.153-9.482,7.051-18.764,12.737-25.684c7.198-8.76,15.579-16.548,24.111-23.982
			c7.583-6.606,15.294-13.068,23.88-18.34c19.612-12.043,43.568-18.034,66.442-14.093c23.806,4.102,42.287,19.184,55.002,39.158
			c12.151,19.087,22.651,44.45,18.167,67.471c-2.217,11.378-9.941,21.743-16.587,30.959c-8.011,11.108-17.391,21.288-27.637,30.362
			c-9.244,8.187-19.915,15.783-31.709,19.732c-9.646,3.23-19.36,6.162-28.66,10.331c-19.707,8.834-31.929,25.539-32.367,47.424
			c-0.348,17.35,9.427,30.573,25.399,36.548c15.936,5.962,34.401,4.438,50.883,2.131c7.031-0.983,14.371-2.006,21.076-4.413
			c7.057-2.534,13.865-5.823,20.692-8.906c16.906-7.634,34.351-15.72,52.834-18.559c6.478-0.995,13.773-0.938,19.365,2.854
			c4.757,3.226,5.297,9.682,4.284,14.804c-3.257,16.468-16.904,31.045-28.253,42.59c-10.681,10.865-21.987,20.317-35.85,26.733
			c-19.716,9.126-41.662,14.694-63.396,15.341c-19.549,0.581-40.296-3.685-54.323-18.226c-3.545-3.676-6.007-8.021-8.751-12.284
			c-3.508-5.45-7.562-10.575-11.891-15.392c-8.069-8.977-17.861-16.537-28.539-22.146c-21.784-11.443-47.264-12.686-70.147-3.81
			c-6.654,2.581-12.276,6.913-17.522,11.715c-9.102,8.33-16.143,19.055-19.311,31.03c-4.609,17.427,0.516,35.365,9.183,50.631
			c6.705,11.81,15.814,22.267,25.381,31.822c8.3,8.291,15.44,17.012,20.575,27.631c8.339,17.245,8.463,37.031,1.716,54.772
			c-13.579,35.701-52.771,54.775-89.341,52.938c-6.448-0.324-6.417,9.678,0,10c40.241,2.022,81.348-19.096,97.649-57.035
			c7.568-17.612,8.596-37.23,2.732-55.502c-3.252-10.132-8.643-19.523-15.241-27.832c-8.601-10.829-19.274-19.711-27.587-30.83
			c-10.893-14.569-19.603-32.897-15.984-51.494c2.262-11.627,9.111-21.567,17.728-29.453c5.867-5.369,11.674-8.748,20.107-11.321
			c23.931-7.303,48.705-0.818,68.406,13.812c10.117,7.514,18.451,17.478,25.1,28.108c5.352,8.558,11.68,15.617,20.2,21.136
			c17.128,11.093,39.109,12.915,58.931,11.196c21.777-1.889,43.111-8.325,62.769-17.775c13.475-6.479,24.855-16.907,35.254-27.485
			c12.087-12.295,24.447-26.895,29.431-43.726c4.252-14.365-2.042-28.874-17.268-32.388c-16.882-3.896-35.924,3.797-51.304,9.984
			c-14.53,5.845-28.617,14.194-43.691,18.534c-15.574,4.484-33.497,5.913-49.572,4.278c-14.653-1.49-29.375-8.376-31.443-24.472
			c-1.324-10.306,1.197-21.02,7.121-29.532c5.433-7.807,14.64-12.668,23.216-16.179c9.484-3.882,19.565-6.17,28.99-10.16
			c11.643-4.929,22.01-12.834,31.414-21.163c10.107-8.952,18.986-19.223,27.045-30.029c6.968-9.342,14.122-19.705,17.608-30.931
			c6.919-22.278-1.804-47.775-11.858-67.646c-10.587-20.921-26.194-39.221-47.913-48.939c-21.042-9.417-44.89-9.485-66.761-2.966
			c-21.189,6.316-38.32,19.258-54.683,33.624c-8.549,7.506-16.737,15.495-23.87,24.375c-6.07,7.558-11.88,16.237-13.528,25.974
			c-1.801,10.636,2.374,20.19,11.087,26.354c7.047,4.985,15.641,5.378,23.858,6.51c19.802,2.726,38.977,0.393,53.103-15.23
			c12.901-14.268,15.217-35.114,15.624-53.551c0.364-16.479-0.211-34.122-4.945-49.989c-5.086-17.043-16.974-29.127-33.507-35.351
			c-19.304-7.267-43.592-7.303-61.864,2.829C920.797,61.939,925.84,70.577,931.483,67.447L931.483,67.447z"/>
	</g>
</g>
<g>
	<g>
		<path fill="#E6E6E6" d="M952.318,752.573c0.054-15.125,0.407-30.274,3.518-45.13c2.401-11.475,6.634-24.826,14.12-34.135
			c3.716-4.619,6.877-3.353,12.224-1.409c8.991,3.269,17.768,6.812,27.364,7.875c10.031,1.109,20.48-2.477,26.666-10.624
			c6.919-9.115,7.408-21.698,8.691-32.646c1.434-12.234,3.348-24.932,11.396-34.765c8.539-10.43,20.87-12.191,33.536-12.748
			c12.279-0.54,23.857-1.387,34.787-7.544c10.27-5.785,17.907-15.266,23.678-25.35c12.305-21.505,14.771-52.249,37.831-65.71
			c4.972-2.902,10.788-4.288,16.222-6.048c7.348-2.379,14.783-4.483,22.2-6.633c7.006-2.03,13.996-4.107,20.93-6.373
			c6.326-2.066,12.663-5.499,19.074-7.09c9.695-2.405,18.008-11.749,23.892-19.143c4.775-6.001,8.865-12.474,12.57-19.181
			c3.921-7.098,6.652-14.962,11.717-21.378c7.642-9.681,18.79-15.425,30.472-18.691c10.914-3.052,22.365-3.798,33.649-3.379
			c6.939,0.259,14.268,0.814,20.925,2.955c6.157,1.979,8.771-7.678,2.658-9.643c-11.55-3.713-24.957-3.864-36.929-3.188
			c-17.951,1.014-35.814,5.822-50.075,17.12c-8.38,6.639-13.153,15.42-17.763,24.831c-5.146,10.507-11.324,20.717-19.3,29.328
			c-3.688,3.981-7.845,7.609-12.72,10.054c-1.562,0.783,0.188-0.015-0.729,0.337c-0.294,0.112-0.593,0.211-0.896,0.299
			c-5.306,1.544-10.475,4.141-15.72,5.955c-14.244,4.929-28.866,8.673-43.262,13.118c-11.407,3.521-21.808,6.876-31.008,14.717
			c-10.124,8.627-15.314,21.731-19.929,33.863c-4.57,12.017-8.987,24.038-16.131,34.82c-6.797,10.26-16.836,17.94-28.956,20.506
			c-11.639,2.464-23.744,0.896-35.416,3.501c-12.332,2.753-22.169,11.256-28.262,22.108c-5.935,10.572-7.229,22.985-8.614,34.803
			c-0.947,8.076-1.467,17.142-5.786,24.239c-4.093,6.723-12.174,8.125-19.401,7.577c-12.016-0.911-22.563-9.469-34.53-9.714
			c-12.682-0.261-19.085,16.438-22.942,25.87c-8.663,21.183-9.673,44.041-9.753,66.643
			C942.295,759.023,952.295,759.021,952.318,752.573L952.318,752.573z"/>
	</g>
</g>
<g>
	<g>
		<path fill="#E6E6E6" d="M1256,1029c-1.16-10.862-2.752-21.692-3.377-32.604c-0.486-8.499-0.404-17.656,3.273-25.521
			c8.528-18.229,33.788-20.8,51.412-21.013c19.887-0.241,39.686,3.395,59.575,2.119c19.315-1.238,35.927-8.936,47.21-24.991
			c14.308-20.36,15.498-45.262,10.188-68.788c-5.253-23.279-15.609-45.56-14.329-69.899c1.209-22.985,14.541-44.815,29.577-61.472
			c15.543-17.216,34.703-30.757,54.219-43.069c15.678-9.891,31.875-18.922,47.774-28.444c5.524-3.309,0.5-11.957-5.047-8.635
			c-38.791,23.232-81.176,44.479-110.18,80.276c-14.418,17.794-25.203,39.65-26.42,62.799c-1.265,24.04,8.872,46.808,14.438,69.721
			c5.641,23.218,3.84,48.526-12.59,67.202c-12.601,14.325-31.696,16.027-49.601,15.465c-20.269-0.637-40.466-3.82-60.729-1.239
			c-19.297,2.458-38.96,10.211-46.137,29.718c-6.655,18.088-1.23,39.914,0.741,58.376
			C1246.678,1035.343,1256.685,1035.409,1256,1029L1256,1029z"/>
	</g>
</g>
<g>
	<g>
		<path fill="#E6E6E6" d="M1105,668c24.211,1.951,49.345,7.727,72.529-2.467c11.726-5.155,18.427-14.581,23.788-25.76
			c2.391-4.983,4.828-9.773,8.971-13.535c4.073-3.698,9.987-3.803,15.151-4.037c12.53-0.568,23.006-3.686,30.92-14.041
			c7.88-10.311,8.332-24.464,10.192-36.777c3.547-23.469,9.574-45.902,20.808-66.912c5.356-10.018,11.564-19.568,17.958-28.947
			c3.644-5.345-5.026-10.34-8.635-5.047c-13.848,20.313-25.976,41.497-32.876,65.225c-3.451,11.868-5.584,24.09-7.387,36.3
			c-1.898,12.854-2.431,28.102-14.23,36.193c-9.142,6.27-21.25,2.522-31.253,6.257c-11.218,4.188-15.729,15.423-20.711,25.295
			c-12.542,24.854-42.723,22.778-66.349,20.217c-6.29-0.683-12.569-1.455-18.877-1.963C1098.568,657.481,1098.618,667.485,1105,668
			L1105,668z"/>
	</g>
</g>
<g>
	<g>
		<path fill="#E6E6E6" d="M-47-106c2.501,21.703,2.699,44.016,9.884,64.876c7.04,20.439,24.322,41.731,47.028,44.622
			c9.414,1.198,18.599-4.727,27.321-7.271c11.02-3.214,22.005-3.118,33.259-1.299c21.326,3.447,43.135,12.629,65.01,9.304
			c15.511-2.357,25.991-15.428,33.92-27.786c4.018-6.262,7.937-12.48,13.294-17.708c6.751-6.587,15.523-10.002,24.613-11.918
			c19.069-4.018,38.499,0.263,57.6,1.271c20.044,1.058,37.693-5.83,53.595-17.775c5.089-3.823,0.114-12.512-5.047-8.635
			c-9.652,7.25-19.974,13.125-31.901,15.53c-9.174,1.849-18.765,0.893-27.984-0.061c-22.275-2.304-46.454-4.457-66.969,6.433
			c-16.35,8.678-22.348,25.694-33.832,38.959c-5.67,6.548-13.154,11.428-21.898,12.274c-10.542,1.02-21.308-1.617-31.513-3.92
			c-17.067-3.853-34.885-9.068-52.542-6.829c-8.82,1.119-16.991,3.985-25.223,7.192C13.512-5.582,7.384-6.2-0.307-10.408
			C-34.562-29.151-33.129-72.403-37-106C-37.729-112.329-47.737-112.4-47-106L-47-106z"/>
	</g>
</g>
<g>
	<g>
		<path fill="#E6E6E6" d="M24.122,40.607c10.049-0.028,20.636-1.177,30.366,1.892c8.588,2.709,13.479,11.644,13.904,20.241
			c0.411,8.319-2.517,16.637-5.52,24.26c-3.725,9.457-8.598,18.479-13.334,27.455c-8.901,16.869-19.63,34.515-22.683,53.632
			c-1.143,7.158-1.368,14.805,3.349,20.731c3.706,4.656,9.313,7.188,14.667,9.422c7.687,3.207,24.066,6.27,24.933,16.274
			c0.613,7.081-4.051,15.313-8.338,20.581c-5.281,6.487-11.654,12.103-17.477,18.089c-10.433,10.727-25.879,27.395-18.178,43.639
			c7.667,16.172,26.087,17.288,41.484,14.843c18.458-2.93,36.629-10.707,52.811-19.859c6.49-3.671,12.895-7.844,18.35-12.958
			c5.708-5.352,8.4-13.036,10.367-20.435c4.985-18.75,0.466-37.99-7.284-55.266c-6.422-14.316-15.816-26.866-23.134-40.67
			c-1.134-2.139-1.846-3.661-2.478-5.883c-0.445-1.562-0.258-0.642-0.287-1.761c-0.027-1.081-0.035-0.327,0.158-0.656
			c-0.232,0.395-0.245,0.188,0.519-0.242c1.209-0.682-0.875,0.267,0.579-0.222c0.777-0.261,1.615-0.42,2.406-0.605
			c5.402-1.267,10.849-2.335,16.269-3.521c8.186-1.791,16.786-3.919,23.668-8.928c7.146-5.202,10.934-13.006,12.481-21.559
			c0.739-4.088,0.486-8.303,1.909-12.237c1.087-3.005,3.774-5.452,6.133-7.454c6.004-5.098,13.908-8.224,21.031-11.38
			c11.928-5.285,30.742-11.597,33.141-26.592c1.009-6.306-8.626-9.013-9.643-2.658c-0.999,6.241-6.506,9.719-11.624,12.624
			c-7.197,4.085-15.003,7.049-22.506,10.511c-7.177,3.311-14.339,7.121-19.997,12.74c-6.454,6.41-6.776,13.333-8.088,21.789
			c-1.279,8.249-5.024,14.536-12.483,18.408c-7.978,4.142-17.703,5.314-26.391,7.163c-5.625,1.196-13.456,1.845-16.378,7.745
			c-2.342,4.727-0.665,9.761,1.264,14.292c5.737,13.471,15.351,25.283,22.017,38.327c8.414,16.463,13.58,34.996,9.074,53.379
			c-1.857,7.575-4.325,13.137-9.945,17.944c-5.925,5.068-12.982,8.963-19.856,12.565c-15.907,8.335-34.211,15.633-52.333,16.54
			c-7.236,0.362-13.539-0.837-18.953-5.879c-5.671-5.282-4.861-12.056-1.536-18.401c8.022-15.305,23.454-25.032,33.738-38.589
			c8.334-10.988,14.782-28.555,2.677-39.243c-9.158-8.086-22.163-9.093-32.204-15.638c-10.442-6.807-1.62-26.412,2.343-35.568
			c7.893-18.235,18.552-35.126,26.64-53.273c6.756-15.158,12.138-31.652,5.104-47.633c-8.882-20.176-32.49-18.023-50.735-17.971
			C17.674,30.625,17.672,40.625,24.122,40.607L24.122,40.607z"/>
	</g>
</g>
</svg>
