<?xml version="1.0" encoding="utf-8"?>
<!-- Generator: Adobe Illustrator 16.0.0, SVG Export Plug-In . SVG Version: 6.00 Build 0)  -->
<!DOCTYPE svg PUBLIC "-//W3C//DTD SVG 1.1//EN" "http://www.w3.org/Graphics/SVG/1.1/DTD/svg11.dtd">
<svg version="1.1" id="Layer_1" xmlns="http://www.w3.org/2000/svg" xmlns:xlink="http://www.w3.org/1999/xlink" x="0px" y="0px"
	 width="1366px" height="768px" viewBox="-49.5 -12 1366 768" enable-background="new -49.5 -12 1366 768" xml:space="preserve">
<image display="none" overflow="visible" enable-background="new    " width="2538" height="1360" xlink:href="Screen Shot 2015-06-23 at 7.40.53 PM.png"  transform="matrix(0.5 0 0 0.5 -0.0029 21.9971)">
</image>
<g>
	<g>
		<path fill="#E6E6E6" d="M1198.855,40.956c5.575,0.776,11.144,0.739,16.755,0.993c4.856,0.22,10.21,0.778,12.718,5.458
			c3.146,5.872-0.814,12.307-5.088,16.141c-4.242,3.805-9.648,6.166-14.238,9.507c1.683,0,3.364,0,5.047,0
			c-4.619-1.953-9.326,1.961-13.05,4.398c-6.685,4.373-13.042,9.371-18.821,14.883c-10.595,10.106-22.26,28.12-5.808,38.833
			c8.458,5.509,19.601,5.859,29.092,8.481c11.672,3.225,23.284,9.14,31.698,17.905c4.174,4.348,7.183,10.31,6.18,16.451
			c-0.993,6.083-5.338,10.967-9.691,15.006c-8.525,7.909-19.321,11.842-30.303,14.94c-9.159,2.585-18.552,4.855-26.686,10.003
			c-3.921,2.481-7.338,5.724-10.11,9.433c-2.98,3.989-7.446,10.678-7.446,15.839c0,9.746,11.918,13.205,19.452,14.135
			c11.534,1.423,23.564-0.754,35.032-1.918c6.352-0.645,6.414-10.651,0-10c-11.583,1.176-23.376,3.047-35.032,1.918
			c-3.22-0.312-7.395-1.192-9.194-4.156c-1.047-1.724,5.408-10.339,7.344-12.43c6.391-6.906,15.948-9.476,24.698-11.908
			c10.181-2.83,20.447-5.712,29.49-11.361c9.861-6.161,19.437-15.106,22.089-26.844c2.875-12.713-5.366-24.052-14.692-31.685
			c-8.81-7.209-20.283-12.241-31.213-15.261c-8.771-2.423-21.031-2.268-27.894-8.979c-3.088-3.02-0.209-8.365,1.521-11.243
			c3.309-5.503,8.269-10.045,13.083-14.209c4.42-3.822,9.175-7.26,14.104-10.392c1.513-0.961,3.056-1.884,4.654-2.693
			c0.531-0.249,0.41-0.207-0.363,0.126c1.464-0.614,0.71,1.006-3.182-0.64c2.152,0.91,3.897,0.836,5.816-0.56
			c5.993-4.363,12.725-7.405,17.911-12.857c5.799-6.094,7.771-14.637,5.538-22.689c-4.56-16.454-24.047-12.501-36.754-14.27
			C1195.211,30.436,1192.492,40.07,1198.855,40.956L1198.855,40.956z"/>
	</g>
</g>
<g>
	<g>
		<path fill="#E6E6E6" d="M421.297-105.581c2.896,10.641,11.559,18.278,17.008,27.559c2.375,4.046,3.559,8.64,1.369,13.039
			c-1.792,3.6-6.313,3.496-9.749,3.292c-9.342-0.557-18.082-4.451-27.563-4.679c-6.306-0.152-13.949,1.694-16.703,8.059
			c-2.626,6.07-0.775,12.759,1.58,18.614c2.99,7.434,7.06,14.371,11.096,21.271c4.442,7.594,8.706,14.973,11.141,23.506
			c1.769,6.195,3.34,15.918-2.977,20.174c-7.209,4.856-17.844,1.225-25.451-0.691c-9.586-2.414-19.809-4.855-29.687-2.912
			c-10.628,2.09-14.634,13.469-14.663,23.116c-0.038,12.867,7.061,26.353,15.12,35.974c14.513,17.327,40.74,19.84,54.441,37.887
			c4.983,6.564,7.883,15.227,5.588,23.358c-2.738,9.704-13.911,12.055-22.648,11.547c-6.21-0.361-12.325-2.911-18.052-5.145
			c-6.341-2.473-12.844-4.452-19.345-6.462c-9.924-3.069-19.846-6.236-29.984-8.534c-9.758-2.211-20.035-3.969-30.068-3.294
			c-10.337,0.694-16.707,5.497-21.324,14.772c-9.706,19.497,7.315,35.813,23.042,44.621c12.442,6.969,25.481,12.687,37.7,20.116
			c7.528,4.578,14.866,9.58,21.258,15.671c4.137,3.943,8.905,9.18,8.499,15.245c-0.48,7.163-9.063,11.457-15.068,12.831
			c-8.163,1.868-17.127,0.526-25.202-1.144c-13.447-2.781-26.013-8.755-39.71-10.415c-8.214-0.995-18.209-0.591-23.557,6.729
			c-5.413,7.409-5.363,18.431-1.961,26.605c8.398,20.177,31.406,27.654,43.118,45.335c9.205,13.896,6.817,28.431-2.56,41.506
			c-8.854,12.347-24.397,17.684-35.167,28.09c-4.644,4.487,2.435,11.552,7.071,7.07c9.036-8.73,20.776-13.886,30.073-22.328
			c9.437-8.567,15.873-21.345,16.714-34.042c0.81-12.218-5.462-23.471-12.9-32.623c-5.458-6.716-12.278-11.435-19.087-16.633
			c-6.945-5.303-13.731-11.363-17.689-19.281c-3.177-6.354-3.314-18.131,4.879-20.364c7.432-2.026,16.399,0.743,23.542,2.833
			c5.373,1.573,10.615,3.54,16.01,5.056c15.518,4.359,35.392,8.057,49.904-1.133c6.461-4.092,11.537-11.626,11.643-19.407
			c0.095-7.021-4.401-13.334-8.867-18.318c-11.636-12.987-28.344-21.862-43.582-29.866c-12.294-6.458-26.071-11.534-35.619-22.03
			c-7.414-8.151-6.36-18.438,0.963-26.373c2.03-2.2,6.188-2.411,8.944-2.596c5.106-0.343,10.316,0.184,15.364,0.928
			c21.906,3.229,43.746,10.885,64.37,18.635c11.582,4.352,23.763,5.676,35.336,0.703c7.814-3.357,13.142-11.076,14.399-19.34
			c3.179-20.882-13.211-36.316-29.768-45.589c-10.125-5.671-21.145-10.246-29.953-17.965c-9.445-8.278-16.446-22.825-15.791-35.451
			c0.216-4.168,2.046-9.062,6.277-10.407c4.549-1.447,9.999-0.513,14.581,0.278c9.659,1.667,18.896,5.179,28.761,5.592
			c8.448,0.354,16.808-2.601,21.448-9.939c4.623-7.309,3.349-17.165,1.276-25.047c-4.307-16.382-15.789-29.349-22.237-44.777
			c-1.329-3.18-2.569-6.606-2.541-10.085c0.006-0.787,0.32-1.779,0.576-2.082c0.687-0.811,1.981-1.241,3.386-1.568
			c10.518-2.457,22.14,3.833,32.655,4.461c12.37,0.738,21.374-8.793,19.683-21.22c-1.922-14.129-16.089-22.128-19.699-35.389
			C429.248-114.455,419.601-111.813,421.297-105.581L421.297-105.581z"/>
	</g>
</g>
<g>
	<g>
		<path fill="#E6E6E6" d="M95.54,515.156c2.897-21.89,21.382-37.925,41.746-43.784c23.32-6.71,45.6,2.972,61.041,20.771
			c8.078,9.312,13.348,20.922,15.34,33.048c1.785,10.863-1.492,21.421-6.504,30.973c-5.257,10.02-12.895,19.281-22.628,25.195
			c-4.051,2.461-8.542,3.644-13.127,4.67c-1.937,0.434-2.639-0.529-0.977,0.911c0.919,0.797,0.574,1.497,0.481,0.415
			c-0.104-1.205,0.013-2.44,0.093-3.644c1.713-25.681,27.861-42.757,49.729-51.157c11.006-4.228,22.738-6.484,34.532-5.562
			c12.822,1.005,25.106,8.276,37.048,12.579c27.579,9.933,56.338,14.234,85.142,7.126c22.553-5.566,31.595-26.535,32.536-47.983
			c0.382-8.713,0.138-18.143-4.696-25.707c-3.911-6.12-10.209-10.172-16.812-12.865c-15.911-6.49-34.339-6.438-51.223-5.518
			c-15.64,0.854-31.701,2.671-46.988,6.192c-11.953,2.753-23.013,8.647-34.539,12.699c-10.709,3.767-22.858,6.085-32.459-1.567
			c-8.607-6.86-13.3-18.011-18.053-27.615c-4.797-9.692-9.979-19.447-18.216-26.686c-19.734-17.342-48.495-11.145-70.842-3.688
			c-15.118,5.045-31.979,4.969-47.655,7.117c-15.613,2.14-32.839,5.696-44.404,17.255c-11.763,11.76-14.13,32.668-4.144,46.143
			c5.176,6.984,12.47,11.902,19.408,16.969c6.084,4.441,12.729,9.458,14.84,17.038c2.442,8.771-3.985,15.632-9.683,21.335
			c-6.523,6.53-13.201,12.836-16.261,21.791c-3.197,9.354-0.406,19.8,7.514,25.645c3.506,2.587,8.177,3.78,12.339,4.79
			c5.531,1.341,11.115,2.536,16.665,3.797c13.426,3.049,26.725,6.828,38.641,13.899c10.582,6.278,22.521,16.579,22.812,29.837
			c0.247,11.226-7.96,21.71-14.37,30.178c-7.405,9.784-15.71,19.019-21.469,29.932c-1.148,2.176-0.788,5.734,1.794,6.842
			c11.281,4.836,23.573,5.6,35.701,6.107c12.938,0.543,25.48,1.015,38.186,3.733c10.757,2.303,21.328,5.006,32.38,3.406
			c11.59-1.677,20.422-10.034,28.366-17.938c17.281-17.19,33.351-36.934,55.683-47.802c5.851-2.849,18.116-8.331,21.599,0.318
			c3.098,7.694,2.737,16.531,4.918,24.502c2.736,10.003,9.178,17.834,18.936,21.445c9.544,3.532,20.705,1.896,30.624,1.68
			c14.615-0.32,29.478,1.812,43.904,3.923c7.441,1.088,14.855,2.358,22.258,3.687c7.381,1.322,15.242,2.174,22.437,4.289
			c8.788,2.582,17.318,5.715,26.505,6.609c10.065,0.979,17.387-6.265,20.406-15.33c2.84-8.525,1.252-19.246-1.738-27.529
			c-1.987-5.503-6.131-9.496-10.696-12.943c-7.373-5.565-16.292-9.095-24.763-12.6c-9.454-3.913-19.062-7.457-28.315-11.84
			c-7.869-3.728-15.877-8.076-21.52-14.873c-5.088-6.129-4.432-14.02-1.215-20.867c2.726-5.801-5.895-10.881-8.635-5.047
			c-5.946,12.659-4.88,25.399,5.122,35.572c10.002,10.174,24.504,15.614,37.447,20.87c12.296,4.992,26.291,9.183,36.889,17.459
			c4.876,3.807,6.309,6.961,7.684,12.779c1.076,4.553,1.499,9.447,0.673,14.071c-0.643,3.592-3.245,9.723-7.485,10.289
			c-8.55,1.141-18.35-3.3-26.343-5.845c-5.865-1.868-12.243-2.578-18.29-3.703c-7.989-1.486-15.996-2.873-24.024-4.127
			c-14.88-2.325-29.972-4.303-45.036-4.833c-10.292-0.361-20.958,1.729-31.093-0.692c-20.213-4.831-12.55-30.978-21.374-44.423
			c-5.298-8.073-15.256-7.947-23.599-5.534c-11.478,3.319-21.605,10.087-30.87,17.43c-12.075,9.567-22.523,21.034-33.251,32.036
			c-10.037,10.293-19.615,20.219-34.989,19.521c-6.724-0.306-13.389-2.181-19.935-3.605c-7.794-1.695-15.576-2.873-23.539-3.38
			c-15.599-0.993-33.258,0.851-47.959-5.453c0.598,2.28,1.196,4.562,1.794,6.842c10.055-19.054,28.155-33.184,35.321-53.863
			c8.142-23.498-12.016-42.689-31.066-52.654c-11.209-5.863-23.588-9.186-35.846-12.019c-5.162-1.192-10.317-2.383-15.491-3.526
			c-4.331-0.956-9.082-1.987-12.362-5.173c-6.967-6.764,0.096-18.133,5.005-23.538c6.03-6.637,13.41-12.242,17.497-20.422
			c9.043-18.096-5.982-32.223-19.34-41.94c-6.596-4.798-13.473-9.676-17.235-17.135c-3.452-6.846-1.987-16.547,1.381-23.145
			c7.063-13.837,25.208-17.507,39.091-19.813c16.247-2.699,32.968-2.835,48.999-6.797c10.996-2.719,21.001-7.112,32.481-8.042
			c12.668-1.027,25.995,1.447,35.25,10.663c7.72,7.686,12.041,18.475,16.851,28.056c5,9.958,10.796,19.56,19.97,26.188
			c20.272,14.646,46.785-2.359,66.582-9.122c15.023-5.131,32.135-6.493,47.872-7.614c16.82-1.198,35.043-1.563,51.017,4.621
			c5.403,2.092,10.982,5.96,13.274,11.486c3.554,8.568,2.144,20.662,0.312,29.481c-2.086,10.044-7.161,18.969-16.338,23.978
			c-5.519,3.011-12.407,3.929-18.52,4.926c-7.72,1.259-15.642,1.364-23.436,0.948c-14.393-0.77-28.483-4.581-42.068-9.199
			c-12.491-4.246-24.655-11.145-37.696-13.408c-23.265-4.041-47.84,5.126-67.022,17.802c-9.763,6.451-18.891,14.318-24.968,24.39
			c-3.505,5.808-6.237,11.98-7.019,18.765c-0.45,3.906-1.404,8.613,0.043,12.429c3.178,8.378,14.023,4.605,20.216,2.555
			c10.334-3.424,18.91-11.28,25.573-19.637c7.037-8.824,12.438-19.088,15.266-30.037c2.788-10.797,1.375-22.15-2.097-32.614
			c-10.108-30.468-40.478-54.716-73.261-51.876c-30.236,2.619-57.666,25.014-61.73,55.718
			C84.696,521.534,94.707,521.453,95.54,515.156L95.54,515.156z"/>
	</g>
</g>
<g>
	<g>
		<path fill="#E6E6E6" d="M931.483,69.447c19.795-10.978,51.206-8.594,68.439,6.524c15.429,13.535,15.743,36.216,16.655,55.089
			c1.014,20.969,0.365,46.379-15.628,61.971c-7.384,7.198-17.401,10.131-27.49,10.331c-7.008,0.138-13.789-1.385-20.735-1.885
			c-10.192-0.733-19.908-6.493-20.087-17.542c-0.152-9.482,7.052-18.764,12.737-25.684c7.198-8.76,15.579-16.548,24.111-23.982
			c7.583-6.606,15.294-13.068,23.88-18.34c19.612-12.043,43.567-18.034,66.442-14.093c23.806,4.102,42.286,19.184,55.002,39.158
			c12.15,19.087,22.65,44.45,18.166,67.471c-2.217,11.378-9.94,21.743-16.587,30.959c-8.011,11.108-17.391,21.288-27.637,30.362
			c-9.244,8.187-19.915,15.783-31.709,19.732c-9.646,3.23-19.36,6.162-28.66,10.331c-19.707,8.833-31.929,25.539-32.366,47.424
			c-0.349,17.35,9.427,30.572,25.398,36.548c15.936,5.962,34.401,4.438,50.883,2.131c7.031-0.983,14.371-2.006,21.076-4.413
			c7.057-2.534,13.865-5.823,20.692-8.906c16.905-7.634,34.351-15.72,52.834-18.559c6.478-0.995,13.772-0.938,19.364,2.854
			c4.758,3.227,5.298,9.683,4.284,14.805c-3.257,16.468-16.903,31.045-28.253,42.59c-10.681,10.865-21.986,20.316-35.85,26.732
			c-19.716,9.126-41.662,14.694-63.396,15.342c-19.549,0.58-40.296-3.686-54.322-18.227c-3.545-3.676-6.008-8.021-8.751-12.284
			c-3.509-5.45-7.562-10.575-11.892-15.392c-8.068-8.978-17.861-16.537-28.539-22.146c-21.783-11.442-47.264-12.686-70.146-3.81
			c-6.654,2.581-12.276,6.913-17.522,11.715c-9.102,8.33-16.143,19.055-19.311,31.03c-4.609,17.427,0.516,35.365,9.183,50.631
			c6.705,11.81,15.814,22.267,25.381,31.822c8.301,8.291,15.44,17.012,20.575,27.631c8.339,17.245,8.463,37.031,1.716,54.771
			c-13.579,35.701-52.771,54.775-89.341,52.938c-6.448-0.324-6.417,9.678,0,10c40.241,2.021,81.349-19.097,97.649-57.035
			c7.567-17.612,8.596-37.229,2.731-55.502c-3.252-10.132-8.643-19.523-15.241-27.832c-8.601-10.829-19.273-19.711-27.587-30.83
			c-10.893-14.569-19.603-32.896-15.983-51.494c2.262-11.627,9.11-21.566,17.728-29.453c5.867-5.368,11.674-8.748,20.107-11.32
			c23.931-7.304,48.705-0.818,68.405,13.812c10.117,7.514,18.451,17.479,25.101,28.108c5.352,8.558,11.68,15.617,20.2,21.136
			c17.128,11.093,39.108,12.915,58.931,11.196c21.777-1.89,43.111-8.325,62.77-17.775c13.475-6.479,24.854-16.907,35.254-27.485
			c12.087-12.295,24.446-26.895,29.431-43.726c4.252-14.365-2.042-28.874-17.268-32.388c-16.882-3.896-35.924,3.797-51.305,9.983
			c-14.529,5.846-28.616,14.194-43.69,18.534c-15.574,4.484-33.497,5.913-49.572,4.278c-14.653-1.49-29.375-8.376-31.442-24.472
			c-1.324-10.307,1.196-21.021,7.12-29.532c5.434-7.808,14.641-12.668,23.216-16.179c9.484-3.882,19.565-6.17,28.99-10.16
			c11.644-4.929,22.01-12.834,31.414-21.163c10.107-8.952,18.986-19.223,27.045-30.029c6.969-9.342,14.122-19.705,17.608-30.931
			c6.919-22.278-1.804-47.775-11.858-67.646c-10.587-20.921-26.193-39.221-47.913-48.939c-21.042-9.417-44.89-9.485-66.761-2.966
			c-21.189,6.316-38.32,19.258-54.683,33.624c-8.55,7.506-16.737,15.495-23.87,24.375c-6.07,7.558-11.88,16.237-13.528,25.974
			c-1.801,10.636,2.374,20.19,11.087,26.354c7.047,4.985,15.642,5.378,23.858,6.51c19.802,2.726,38.977,0.393,53.103-15.23
			c12.901-14.268,15.217-35.114,15.624-53.551c0.364-16.479-0.211-34.122-4.944-49.989c-5.086-17.043-16.975-29.127-33.508-35.351
			c-19.304-7.267-43.592-7.303-61.863,2.829C920.797,63.939,925.84,72.577,931.483,69.447L931.483,69.447z"/>
	</g>
</g>
<g>
	<g>
		<path fill="#E6E6E6" d="M963.585,757.058c0.054-15.125,0.406-30.274,3.518-45.13c2.401-11.476,6.634-24.826,14.12-34.136
			c3.716-4.618,6.877-3.353,12.224-1.408c8.991,3.269,17.769,6.812,27.364,7.875c10.031,1.108,20.48-2.478,26.666-10.624
			c6.919-9.115,7.408-21.698,8.691-32.646c1.434-12.234,3.348-24.932,11.396-34.765c8.539-10.431,20.87-12.191,33.536-12.748
			c12.279-0.54,23.857-1.388,34.787-7.544c10.27-5.785,17.907-15.267,23.678-25.351c12.306-21.505,14.771-52.249,37.831-65.71
			c4.973-2.901,10.788-4.288,16.223-6.048c7.348-2.379,14.782-4.482,22.199-6.633c7.006-2.03,13.996-4.107,20.931-6.373
			c6.325-2.066,12.663-5.499,19.073-7.09c9.695-2.405,18.009-11.749,23.893-19.144c4.774-6.001,8.865-12.474,12.569-19.181
			c3.921-7.098,6.652-14.962,11.718-21.378c7.642-9.681,18.79-15.425,30.472-18.691c10.914-3.052,22.365-3.798,33.649-3.379
			c6.938,0.26,14.268,0.814,20.925,2.955c6.157,1.979,8.771-7.678,2.658-9.643c-11.551-3.713-24.957-3.864-36.93-3.188
			c-17.95,1.015-35.813,5.822-50.074,17.12c-8.38,6.639-13.153,15.42-17.764,24.831c-5.146,10.507-11.323,20.717-19.3,29.328
			c-3.688,3.981-7.845,7.609-12.72,10.054c-1.562,0.783,0.188-0.015-0.729,0.337c-0.294,0.112-0.593,0.211-0.896,0.3
			c-5.307,1.544-10.476,4.141-15.72,5.954c-14.244,4.93-28.866,8.674-43.263,13.118c-11.407,3.521-21.808,6.876-31.008,14.717
			c-10.124,8.628-15.313,21.731-19.929,33.863c-4.57,12.018-8.987,24.038-16.131,34.82c-6.797,10.26-16.836,17.939-28.956,20.506
			c-11.64,2.464-23.744,0.896-35.416,3.501c-12.332,2.753-22.169,11.256-28.263,22.108c-5.935,10.571-7.229,22.984-8.613,34.803
			c-0.947,8.076-1.468,17.142-5.786,24.239c-4.093,6.723-12.175,8.125-19.401,7.576c-12.016-0.91-22.562-9.469-34.53-9.714
			c-12.682-0.261-19.085,16.438-22.941,25.87c-8.663,21.184-9.673,44.041-9.753,66.644
			C953.562,763.508,963.562,763.506,963.585,757.058L963.585,757.058z"/>
	</g>
</g>
<g>
	<g>
		<path fill="#E6E6E6" d="M50.443,831.699c-10.402-3.338-20.949-6.269-31.178-10.115c-7.969-2.998-16.307-6.78-22.009-13.328
			c-13.214-15.179-5.335-39.316,1.607-55.517c7.833-18.281,19.175-34.912,26.063-53.613c6.69-18.162,6.378-36.468-3.732-53.286
			c-12.822-21.327-35.109-32.5-58.769-37.173c-23.413-4.623-47.979-4.178-69.714-15.205c-20.525-10.413-35.086-31.443-44.228-51.937
			c-9.446-21.184-14.068-44.186-17.423-67.016c-2.694-18.34-4.393-36.807-6.66-55.199c-0.789-6.392-10.73-5.3-9.94,1.117
			c5.533,44.876,7.796,92.234,28.781,133.25c10.431,20.389,26.047,39.101,46.72,49.588c21.468,10.893,46.392,10.844,69.595,15.033
			c23.514,4.245,45.924,16.141,56.347,38.726c7.996,17.322,1.819,35.471-5.945,51.615c-8.792,18.274-19.88,35.452-25.726,55.024
			c-5.567,18.64-6.441,39.758,8.488,54.22c13.843,13.409,35.997,17.287,53.675,22.962C52.467,842.792,56.581,833.668,50.443,831.699
			L50.443,831.699z"/>
	</g>
</g>
<g>
	<g>
		<path fill="#E6E6E6" d="M1105,670c24.211,1.951,49.345,7.727,72.529-2.467c11.726-5.155,18.427-14.581,23.788-25.76
			c2.391-4.983,4.827-9.773,8.971-13.535c4.073-3.698,9.987-3.803,15.151-4.037c12.529-0.568,23.006-3.687,30.92-14.041
			c7.88-10.312,8.332-24.464,10.191-36.777c3.547-23.469,9.574-45.901,20.809-66.912c5.355-10.018,11.563-19.567,17.958-28.946
			c3.644-5.346-5.026-10.341-8.636-5.047c-13.848,20.312-25.976,41.496-32.876,65.225c-3.45,11.868-5.584,24.09-7.387,36.3
			c-1.897,12.854-2.431,28.103-14.229,36.193c-9.143,6.27-21.25,2.521-31.254,6.257c-11.218,4.188-15.729,15.423-20.711,25.295
			c-12.542,24.854-42.723,22.778-66.349,20.217c-6.29-0.683-12.569-1.455-18.877-1.963C1098.568,659.481,1098.618,669.485,1105,670
			L1105,670z"/>
	</g>
</g>
<g>
	<g>
		<path fill="#E6E6E6" d="M-47-104c2.501,21.703,2.699,44.016,9.884,64.876c7.04,20.439,24.322,41.731,47.028,44.622
			c9.414,1.198,18.599-4.727,27.321-7.271c11.02-3.214,22.005-3.118,33.259-1.299c21.326,3.447,43.135,12.629,65.01,9.304
			c15.511-2.357,25.991-15.428,33.92-27.786c4.018-6.262,7.937-12.48,13.294-17.708c6.751-6.587,15.523-10.002,24.613-11.918
			c19.069-4.018,38.499,0.263,57.6,1.271c20.044,1.058,37.693-5.83,53.595-17.775c5.089-3.823,0.114-12.512-5.047-8.635
			c-9.652,7.25-19.974,13.125-31.901,15.53c-9.174,1.849-18.765,0.893-27.984-0.061c-22.275-2.304-46.454-4.457-66.969,6.433
			c-16.35,8.678-22.348,25.694-33.832,38.959c-5.67,6.548-13.154,11.428-21.898,12.274c-10.542,1.02-21.308-1.617-31.513-3.92
			c-17.067-3.853-34.885-9.068-52.542-6.829c-8.82,1.119-16.991,3.985-25.223,7.192C13.512-3.582,7.384-4.2-0.307-8.408
			C-34.562-27.151-33.129-70.403-37-104C-37.729-110.329-47.737-110.4-47-104L-47-104z"/>
	</g>
</g>
<g>
	<g>
		<path fill="#E6E6E6" d="M24.122,42.607c10.049-0.028,20.636-1.177,30.366,1.892c8.588,2.709,13.479,11.644,13.904,20.241
			c0.411,8.319-2.517,16.637-5.52,24.26c-3.725,9.457-8.598,18.479-13.334,27.455c-8.901,16.869-19.63,34.515-22.683,53.632
			c-1.143,7.158-1.368,14.805,3.349,20.731c3.706,4.656,9.313,7.188,14.667,9.422c7.687,3.207,24.066,6.27,24.933,16.274
			c0.613,7.081-4.051,15.313-8.338,20.581c-5.281,6.487-11.654,12.103-17.477,18.089c-10.433,10.727-25.879,27.395-18.178,43.639
			c7.667,16.172,26.087,17.288,41.484,14.843c18.458-2.93,36.629-10.707,52.811-19.859c6.49-3.671,12.895-7.844,18.35-12.958
			c5.708-5.352,8.4-13.036,10.367-20.435c4.985-18.75,0.466-37.99-7.284-55.266c-6.422-14.316-15.816-26.866-23.134-40.67
			c-1.134-2.139-1.846-3.661-2.478-5.883c-0.445-1.562-0.258-0.642-0.287-1.761c-0.027-1.081-0.035-0.327,0.158-0.656
			c-0.232,0.396-0.245,0.188,0.519-0.242c1.209-0.682-0.875,0.267,0.579-0.222c0.777-0.261,1.615-0.42,2.406-0.605
			c5.402-1.267,10.849-2.335,16.269-3.521c8.186-1.791,16.786-3.919,23.668-8.928c7.146-5.202,10.934-13.006,12.481-21.559
			c0.739-4.088,0.486-8.303,1.909-12.237c1.087-3.005,3.774-5.452,6.133-7.454c6.004-5.098,13.908-8.224,21.031-11.38
			c11.928-5.285,30.742-11.597,33.141-26.592c1.009-6.306-8.626-9.013-9.643-2.658c-0.999,6.241-6.506,9.719-11.624,12.624
			c-7.197,4.085-15.003,7.049-22.506,10.511c-7.177,3.311-14.339,7.121-19.997,12.74c-6.454,6.41-6.776,13.333-8.088,21.789
			c-1.279,8.249-5.024,14.536-12.483,18.408c-7.978,4.142-17.703,5.314-26.391,7.163c-5.625,1.196-13.456,1.845-16.378,7.745
			c-2.342,4.727-0.665,9.761,1.264,14.292c5.737,13.471,15.351,25.283,22.017,38.327c8.414,16.463,13.58,34.996,9.074,53.379
			c-1.857,7.575-4.325,13.137-9.945,17.944c-5.925,5.068-12.982,8.963-19.856,12.565c-15.907,8.335-34.211,15.633-52.333,16.54
			c-7.236,0.362-13.539-0.837-18.953-5.879c-5.671-5.282-4.861-12.056-1.536-18.401c8.022-15.305,23.454-25.032,33.738-38.589
			c8.334-10.988,14.782-28.555,2.677-39.243c-9.158-8.086-22.163-9.093-32.204-15.638c-10.442-6.807-1.62-26.412,2.343-35.568
			c7.893-18.235,18.552-35.126,26.64-53.273c6.756-15.158,12.138-31.652,5.104-47.633c-8.882-20.176-32.49-18.023-50.735-17.971
			C17.674,32.625,17.672,42.625,24.122,42.607L24.122,42.607z"/>
	</g>
</g>
<g>
	<g>
		<g>
			<path d="M130.277,399.836l-2.095,0.229c-0.476,0.127-0.895,0.501-1.26,1.124c-0.95,0.253-1.592,0.248-1.927-0.013l-0.155,0.042
				c-1.941,0.517-3.162,0.459-3.663-0.174c-0.125-0.471,0.297-0.835,1.268-1.094l1.41-0.31c0.847-0.226,1.12-0.944,0.819-2.156
				s-0.75-2.669-1.347-4.371c-0.598-1.701-1.14-3.407-1.629-5.117c-0.488-1.709-1.498-5.021-3.028-9.934
				c-1.53-4.913-2.615-8.445-3.254-10.596l-1.899-7.377c-0.54-2.024-0.925-3.224-1.158-3.6l-2.046,1.038
				c-0.454,0.121-0.759-0.11-0.914-0.692c-0.155-0.583,0.646-1.311,2.404-2.185c1.758-0.873,2.967-1.398,3.628-1.574
				c1.115-0.297,1.764-0.103,1.946,0.582c0.183,0.686,0.015,1.096-0.501,1.234l-1.534,0.343c-0.723,0.193-1.066,0.646-1.031,1.359
				c0.002,0.59,0.363,2.235,1.083,4.934c0.719,2.699,2.407,7.975,5.063,15.83c2.656,7.854,4.521,13.795,5.594,17.822l0.804,3.268
				l2.243-0.795c1.094-0.291,1.781,0.084,2.059,1.127L130.277,399.836z"/>
			<path d="M144.547,397.191l-2.031,0.293c-0.232,0.041-0.503,0.223-0.815,0.547c-0.312,0.323-0.615,0.511-0.91,0.562
				c-0.295,0.052-0.619-0.031-0.971-0.248c-0.353-0.217-0.561-0.503-0.623-0.857l-0.133-2.974l-3.827-18.05l-5.372-26.64
				c-0.077-0.438,0.168-0.707,0.737-0.807c0.821-0.145,1.299,0.169,1.435,0.94c1.734,9.857,2.938,16.084,3.613,18.683
				c0.674,2.6,1.066,4.212,1.176,4.837c0.11,0.625,0.214,1.466,0.314,2.522l0.233,0.217c0.114,1.141,0.272,2.289,0.476,3.445
				s0.704,3.352,1.5,6.584c0.796,3.232,1.337,5.533,1.621,6.901c-0.125,0.279-0.133,0.722-0.027,1.325
				c0.106,0.605,0.277,0.994,0.514,1.167s0.681,0.202,1.334,0.087c0.652-0.114,1.07-0.327,1.254-0.64l2.399-0.422
				c0.64,0.188,0.994,0.47,1.06,0.845c0.147,0.834-0.075,1.302-0.664,1.406c-0.147,0.025-0.488-0.001-1.023-0.078
				C145.624,396.959,145.2,397.077,144.547,397.191z"/>
			<path d="M159.824,396.915l-2.05-0.096c-0.235-0.003-0.537,0.124-0.904,0.383c-0.368,0.259-0.701,0.387-1,0.382
				c-0.299-0.005-0.602-0.147-0.907-0.427c-0.306-0.28-0.456-0.6-0.45-0.959l0.43-2.945l-0.355-18.448l-0.252-27.175
				c0.007-0.444,0.299-0.662,0.875-0.653c0.833,0.013,1.244,0.411,1.232,1.194c-0.155,10.007-0.146,16.35,0.026,19.03
				c0.172,2.68,0.253,4.337,0.244,4.972c-0.01,0.635-0.066,1.48-0.168,2.536l0.188,0.257c-0.103,1.142-0.164,2.299-0.182,3.474
				c-0.018,1.174,0.06,3.424,0.232,6.748c0.173,3.325,0.27,5.687,0.291,7.083c-0.175,0.252-0.267,0.685-0.277,1.298
				c-0.009,0.613,0.085,1.027,0.286,1.242c0.199,0.215,0.63,0.327,1.293,0.337c0.662,0.011,1.113-0.12,1.353-0.392l2.436,0.038
				c0.593,0.306,0.888,0.648,0.882,1.029c-0.013,0.847-0.319,1.265-0.917,1.256c-0.149-0.003-0.479-0.093-0.99-0.27
				C160.925,396.89,160.486,396.926,159.824,396.915z"/>
			<path d="M187.347,391.578l-1.334,3.871c-1.247,3.441-2.618,5.814-4.113,7.118c-0.627,0.538-1.387,0.91-2.279,1.115
				s-1.912,0.101-3.057-0.314c-1.145-0.415-2.09-1.101-2.835-2.057s-1.212-1.986-1.403-3.091c-0.191-1.104-0.263-2.334-0.215-3.689
				s0.186-2.6,0.415-3.732c0.561-2.992,0.769-4.976,0.623-5.952c1.174-3.242,2.725-8.166,4.652-14.771
				c1.927-6.604,3.478-11.528,4.653-14.771l0.043-1.436c0.101-0.278,0.306-0.514,0.614-0.706c0.308-0.192,0.603-0.237,0.884-0.135
				c1.025,0.371,0.997,2.049-0.084,5.033l-6.939,20.846c0.088,0.258,0.012,0.781-0.229,1.571c-0.823,2.898-1.288,4.777-1.395,5.639
				c-0.253,0.448-0.481,0.951-0.683,1.508c-0.202,0.558-0.345,1.563-0.429,3.019c-0.084,1.454-0.04,2.934,0.132,4.436
				c0.171,1.503,0.563,2.883,1.176,4.14c0.613,1.258,1.291,2.021,2.035,2.29c0.743,0.27,1.325,0.391,1.744,0.361
				c0.419-0.027,0.763-0.1,1.033-0.216c0.269-0.116,0.548-0.369,0.838-0.76c0.289-0.391,0.495-0.692,0.619-0.907
				c0.123-0.214,0.311-0.607,0.563-1.18c0.252-0.572,0.397-0.925,0.435-1.058c0.037-0.133,0.099-0.319,0.185-0.558l0.916-1.964
				l2.519-6.952l0.908-3.823l3.606-11.083l0.281-0.775l-0.142-0.456c0.599-1.089,1.111-2.22,1.536-3.394l3.19-10.592
				c0.115-0.318,0.349-0.509,0.702-0.573c0.352-0.063,0.689-0.037,1.011,0.08l0.698,1.367l-0.354,0.412l0.008,0.543l-1.751,3.517
				l-3.387,11.229l-3.547,10.732l0.189,0.136c-0.141,0.265-0.316,0.685-0.525,1.262l-1.376,4.362l0.116,0.245L187.347,391.578z"/>
			<path d="M206.542,398.083l-0.211,0.155c-0.013,0.016-0.691,1.624-2.033,4.825c-1.134,2.411-2.146,4.155-3.035,5.231
				c-0.89,1.077-1.887,2.023-2.992,2.84s-2.291,1.497-3.558,2.041c-1.268,0.544-2.579,0.771-3.933,0.682
				c-1.354-0.09-2.422-0.457-3.204-1.104c-0.783-0.647-1.325-1.123-1.627-1.428c-0.892-0.901-1.244-1.866-1.06-2.894
				c0.336-0.408,0.682-0.466,1.037-0.173c0.354,0.293,0.727,0.813,1.12,1.563c0.392,0.75,0.86,1.35,1.404,1.799
				s1.38,0.619,2.51,0.51c1.13-0.108,2.237-0.484,3.321-1.125c2.195-1.315,3.964-2.783,5.306-4.406
				c1.341-1.623,2.458-3.479,3.353-5.566c0.894-2.088,1.556-4.122,1.985-6.101c0.429-1.979,0.862-3.953,1.3-5.925
				c1.026-4.697,2.753-8.514,5.179-11.449c2.008-2.43,4.354-3.758,7.036-3.984c1.44-0.1,2.705,0.301,3.792,1.199
				c0.346,0.285,0.68,0.788,1.001,1.506c0.321,0.719,0.418,1.272,0.291,1.661l-0.761,0.317c-0.758-0.626-1.168-1.253-1.231-1.882
				c-0.808-0.667-1.749-0.937-2.824-0.811c-2.004,0.211-3.747,1.213-5.23,3.007c-1.092,1.321-1.892,2.507-2.398,3.556
				c-0.507,1.05-0.892,1.851-1.154,2.402s-0.535,1.302-0.818,2.248s-0.496,1.648-0.639,2.106s-0.336,1.245-0.58,2.362
				c-0.244,1.116-0.398,1.84-0.463,2.17c-0.065,0.331-0.216,1.133-0.451,2.407C206.737,397.099,206.593,397.852,206.542,398.083z"/>
			<path d="M215.688,416.976l-11.535,9.81c-1.312,1.069-2.205,1.313-2.677,0.734c-0.283-0.349-0.266-0.804,0.054-1.367
				c0.319-0.563,0.684-1.012,1.094-1.346l8.612-6.312c1.772-1.443,4.352-3.745,7.741-6.905c3.388-3.16,5.985-5.476,7.79-6.945
				l4.765-3.799c3.461-2.82,4.956-4.52,4.483-5.1l-2.644-2.643c-0.202-0.248-0.32-0.552-0.353-0.911
				c-0.034-0.359,0.082-0.646,0.344-0.859c0.345-0.28,1.59,0.579,3.738,2.578c2.147,2,3.761,3.662,4.841,4.987
				c0.203,0.249,0.312,0.559,0.329,0.932c0.017,0.372-0.09,0.652-0.319,0.839c-0.492,0.401-1.001,0.278-1.528-0.368l-1.391-2.009
				c-0.473-0.58-0.935-0.796-1.387-0.647c-1.914,1.973-3.995,3.874-6.242,5.705l-6.163,4.896c-3.97,3.234-6.629,5.8-7.976,7.696
				C216.688,416.243,216.164,416.588,215.688,416.976z"/>
			<path d="M243.544,406.551l0.666-0.976c0.248-0.29,0.704-0.15,1.371,0.419c1.365,1.167,2.085,2.437,2.162,3.811
				c0.077,1.374-0.138,2.596-0.645,3.666c-0.507,1.069-0.888,1.886-1.143,2.446c-0.562,1.218-1.077,2.1-1.544,2.646
				c-1.416,1.657-3.583,3.256-6.502,4.797c-1.866,0.967-2.868,1.53-3.005,1.69c-1.375,1.609-3.499,5.409-6.37,11.402
				c-2.873,5.992-4.767,10.364-5.684,13.115c-0.921,1.078-1.601,1.429-2.04,1.054c-0.341-0.291-0.494-0.68-0.459-1.164
				c0.035-0.485,0.048-0.772,0.041-0.862c1.002-1.37,2.105-3.524,3.308-6.462c1.204-2.938,2.046-4.861,2.529-5.771
				c0.482-0.91,1.507-2.727,3.076-5.45c1.568-2.723,2.718-4.858,3.449-6.404l-0.143-0.623l-1.28-0.426l-15.835,18.53l-0.954,1.314
				c-0.563,0.659-1.146,0.732-1.747,0.219c-0.244-0.209-0.382-0.459-0.414-0.75c-0.032-0.292,0.056-0.559,0.262-0.8l0.397-0.119
				l25.824-29.825L243.544,406.551z M244.728,407.979l-9.46,10.577c-1.209,1.416-2.062,2.511-2.555,3.286l0.098,0.083
				c0.244,0.208,0.967,0.241,2.169,0.101c1.203-0.142,2.094-0.312,2.673-0.513c0.579-0.201,1.34-0.705,2.284-1.514
				c0.943-0.808,1.68-1.521,2.209-2.141c0.529-0.619,1.037-1.305,1.525-2.057c0.488-0.752,0.971-1.605,1.45-2.561
				c0.478-0.954,0.729-1.874,0.754-2.758c0.024-0.884-0.248-1.568-0.816-2.055l0.124-0.145L244.728,407.979z"/>
			<path d="M261.096,442.777l1.375,16.908l0.026,0.698c0.019,0.507-0.033,0.827-0.157,0.958c-0.331,0.31-0.699,0.472-1.104,0.486
				c-0.406,0.016-0.741-0.077-1.005-0.279s-0.402-0.462-0.414-0.778c0.119-0.259,0.173-0.515,0.164-0.769l-0.241-1.293l-0.242-6.438
				c-0.021-0.571-1.193-1.02-3.515-1.345s-4.039-0.468-5.148-0.426c-0.428,0.017-0.782,0.818-1.064,2.406
				c-0.283,1.589-0.548,3.329-0.798,5.223c-0.25,1.895-0.526,3.08-0.829,3.557c-1.025,0.039-1.708-0.2-2.048-0.717
				c0.646-0.998,1.214-3.391,1.703-7.179c0.488-3.786,0.893-6.539,1.213-8.255c0.32-1.717,0.87-5.438,1.649-11.163
				c0.779-5.725,1.315-9.392,1.607-11.002c0.292-1.609,0.521-2.799,0.684-3.567c0.163-0.768,0.375-1.676,0.635-2.724
				c0.611-2.521,1.193-3.792,1.749-3.813c0.683-0.025,1.143,0.111,1.378,0.409c0.236,0.298,0.455,1.01,0.658,2.135
				c0.203,1.125,0.417,2.557,0.643,4.295c0.226,1.738,0.43,3.335,0.613,4.789c0.577,4.552,0.941,7.545,1.092,8.979
				c0.15,1.435,0.386,2.463,0.709,3.086c-0.036,1.314-0.036,2.442-0.001,3.383C260.462,441.282,260.685,442.094,261.096,442.777z
				 M250.541,448.701c1.859,0.544,4.081,0.767,6.666,0.67c0.534-0.021,0.927-0.077,1.18-0.172l0.325,0.115
				c0.406-0.016,0.601-0.224,0.586-0.626c-0.34-9.049-1.562-18.775-3.664-29.177c-0.026-0.126-0.083-0.356-0.17-0.692
				c-0.088-0.335-0.135-0.599-0.142-0.789c-0.478,1.521-0.73,2.484-0.757,2.888l0.206,0.373c-0.144,0.153-0.361,0.908-0.652,2.264
				c-0.292,1.355-0.662,4.144-1.113,8.363s-0.787,6.933-1.009,8.137c-0.223,1.205-0.464,2.3-0.727,3.283
				c-0.539,2.18-0.786,3.841-0.743,4.982L250.541,448.701z"/>
			<path d="M281.193,439.478l4.621,14.42c0.482,1.623,0.365,2.541-0.352,2.754c-0.43,0.128-0.844-0.063-1.241-0.575
				c-0.397-0.511-0.671-1.02-0.822-1.526l-2.516-10.378c-0.651-2.19-1.784-5.457-3.398-9.801c-1.614-4.343-2.753-7.63-3.417-9.861
				l-1.675-5.859c-1.272-4.278-2.267-6.312-2.983-6.099l-3.456,1.424c-0.307,0.092-0.633,0.084-0.977-0.023
				s-0.564-0.323-0.661-0.648c-0.126-0.426,1.146-1.245,3.817-2.459c2.671-1.213,4.826-2.063,6.465-2.551
				c0.308-0.092,0.636-0.073,0.986,0.055c0.35,0.128,0.567,0.333,0.651,0.617c0.181,0.608-0.128,1.031-0.927,1.269l-2.39,0.512
				c-0.717,0.214-1.094,0.558-1.131,1.032c1.085,2.524,2.041,5.177,2.867,7.955l2.15,7.572c1.459,4.908,2.805,8.35,4.038,10.322
				C280.901,438.272,281.018,438.89,281.193,439.478z"/>
			<path d="M307.324,429.999l1.652,8.237l0.191,0.21c0.061,1.499,0.247,2.809,0.558,3.93c0.311,1.122,0.405,2.342,0.283,3.66
				c-0.123,1.318-0.5,2.576-1.133,3.772c-0.633,1.196-1.464,1.938-2.494,2.223c-1.03,0.286-2.095,0.164-3.195-0.365
				c-1.101-0.529-2.112-1.319-3.036-2.37c-0.923-1.05-1.837-2.345-2.74-3.884c-0.904-1.538-1.701-3.074-2.392-4.606
				c-0.691-1.532-1.356-3.132-1.996-4.799c-1.039-2.785-1.848-5.224-2.427-7.313s-1.147-4.496-1.703-7.219
				c-0.555-2.722-0.93-4.474-1.124-5.254c-0.195-0.78-0.363-1.469-0.507-2.066c-0.144-0.597-0.289-1.32-0.435-2.169
				c-0.147-0.849-0.24-1.602-0.278-2.261c-0.039-0.659-0.015-1.352,0.072-2.079c0.086-0.727,0.266-1.358,0.539-1.895
				c0.599-1.198,1.676-2.013,3.231-2.444c1.554-0.431,2.952-0.368,4.193,0.188c0.206,0.185,0.721,0.58,1.543,1.187
				s1.48,1.22,1.974,1.84c0.493,0.621,1.308,2.256,2.441,4.906C303.531,418.283,305.792,424.475,307.324,429.999z M290.949,404.897
				c-3.11,0.862-2.949,7.482,0.483,19.858l0.678,2.446c0.803,2.896,1.888,5.949,3.255,9.159c1.367,3.211,2.581,5.79,3.642,7.735
				c1.061,1.945,2.232,3.531,3.515,4.756c1.282,1.226,2.458,1.689,3.529,1.393c1.441-0.399,2.089-2.144,1.942-5.231
				c-0.147-3.089-0.472-5.781-0.976-8.079c-0.715-3.139-1.203-5.178-1.463-6.115l-0.416-1.499c-0.215-0.774-0.402-1.431-0.562-1.968
				c-0.161-0.537-0.422-1.42-0.784-2.648c-0.363-1.228-0.708-2.312-1.035-3.254c-0.328-0.94-0.732-2.08-1.214-3.418
				c-0.482-1.337-0.964-2.516-1.446-3.534c-0.482-1.02-1.01-2.103-1.583-3.25c-0.573-1.147-1.151-2.112-1.734-2.896
				c-0.583-0.782-1.195-1.49-1.836-2.125C293.64,404.964,292.308,404.521,290.949,404.897z"/>
			<path d="M312.333,400.584l-0.342-1.131c-0.07-0.374,0.325-0.643,1.187-0.804c1.765-0.33,3.206-0.094,4.323,0.708
				c1.118,0.804,1.934,1.737,2.449,2.803c0.515,1.066,0.911,1.875,1.188,2.426c0.594,1.202,0.958,2.156,1.09,2.863
				c0.401,2.143,0.285,4.834-0.348,8.073c-0.419,2.059-0.609,3.192-0.57,3.4c0.389,2.08,2.015,6.118,4.877,12.115
				c2.862,5.998,5.076,10.217,6.642,12.657c0.261,1.394,0.108,2.144-0.459,2.25c-0.441,0.082-0.839-0.043-1.195-0.374
				s-0.571-0.522-0.646-0.573c-0.438-1.641-1.422-3.851-2.954-6.632c-1.532-2.78-2.5-4.644-2.906-5.591
				c-0.405-0.946-1.176-2.885-2.312-5.815c-1.136-2.93-2.076-5.165-2.821-6.705l-0.574-0.279l-1.135,0.729l4.485,23.958l0.424,1.567
				c0.16,0.853-0.149,1.353-0.926,1.498c-0.315,0.059-0.597,0.009-0.843-0.149c-0.247-0.158-0.4-0.394-0.458-0.705l0.156-0.385
				l-7.008-38.824L312.333,400.584z M314.187,400.56l2.296,14.004c0.343,1.83,0.661,3.181,0.954,4.051l0.126-0.023
				c0.315-0.059,0.795-0.601,1.44-1.626c0.645-1.024,1.071-1.825,1.279-2.402c0.207-0.577,0.292-1.486,0.255-2.729
				c-0.037-1.241-0.13-2.263-0.28-3.063c-0.15-0.8-0.365-1.627-0.644-2.479c-0.279-0.852-0.64-1.764-1.083-2.735
				s-1-1.745-1.673-2.318s-1.376-0.792-2.112-0.654l-0.035-0.188L314.187,400.56z"/>
		</g>
	</g>
</g>
<g>
	<g>
		<g>
			<path d="M958.107,429.859l-0.125,0.068c-0.533,0.506-1.221,1.349-2.063,2.527c-0.844,1.18-1.894,2.356-3.15,3.532
				c-1.258,1.175-3.906,4.237-7.947,9.186s-6.73,8.388-8.068,10.317c-0.084,0.122-0.31,0.223-0.678,0.303
				c-0.367,0.08-0.67,0.038-0.906-0.127c-0.237-0.164-0.371-0.431-0.401-0.799c-0.031-0.369,0.068-0.803,0.297-1.301
				c0.228-0.498,0.438-0.925,0.633-1.279c0.362-0.599,0.807-1.295,1.331-2.09c0.525-0.794,1.014-1.64,1.466-2.536
				s0.935-1.921,1.447-3.071c0.512-1.152,0.951-2.096,1.318-2.832s1.916-3.674,4.645-8.811c7.222-13.607,10.848-20.863,10.878-21.77
				c0.589-0.287,1.099-0.281,1.529,0.017c0.43,0.298,0.551,0.864,0.362,1.7c-0.188,0.834-0.585,1.828-1.188,2.979
				c-0.604,1.152-1.208,2.239-1.812,3.263c-0.605,1.021-1.229,2.044-1.872,3.065c-0.643,1.021-1.375,2.266-2.195,3.73
				s-2.518,4.794-5.09,9.987c-2.573,5.193-4.396,8.809-5.47,10.846l0.105,0.072c1.169-1.686,2.646-3.527,4.432-5.521
				c1.784-1.993,2.896-3.251,3.335-3.771s1.021-1.127,1.749-1.819c0.727-0.692,1.268-1.258,1.622-1.694
				c0.354-0.436,1.342-1.701,2.964-3.797c1.62-2.094,2.695-3.447,3.224-4.06c0.527-0.612,1.123-1.274,1.786-1.986
				c0.662-0.712,1.145-1.285,1.446-1.72l0.616-1.002c0.313-0.452,0.809-0.623,1.487-0.514c1.071,0.742,1.39,1.427,0.956,2.053
				l-0.752,0.521c-2.748,3.965-5.28,9.213-7.597,15.742c-2.316,6.53-4.782,11.683-7.397,15.455l0.086,0.214
				c0.395-0.344,1.236-1.344,2.527-2.998c1.289-1.654,3.415-4.12,6.375-7.397c2.961-3.277,4.997-5.624,6.109-7.041
				c1.112-1.418,2.937-3.552,5.472-6.402c2.535-2.852,4.388-5.12,5.557-6.807l0.652-1.055c0.591-0.852,1.352-0.955,2.282-0.311
				c0.229,0.158,0.399,0.4,0.514,0.723c0.113,0.324,0.068,0.634-0.137,0.93c-0.205,0.295-0.609,0.465-1.213,0.511
				c-0.013,0.094-0.073,0.22-0.182,0.376c-0.157,0.226-0.499,0.568-1.024,1.027c-1.681,1.898-4.758,5.578-9.23,11.037
				c-4.474,5.46-8.503,10.017-12.09,13.671c-3.586,3.654-6.271,6.769-8.055,9.343l-0.543,0.782
				c-0.289,0.417-0.573,0.696-0.853,0.837c-0.28,0.141-0.622,0.071-1.025-0.208c-0.844-0.585,0.405-3.774,3.745-9.568
				c1.005-1.75,2.641-5.301,4.909-10.654c2.268-5.354,4.031-9.241,5.294-11.661L958.107,429.859z M949,455.098
				c-0.07-0.049-0.124-0.047-0.16,0.005L949,455.098z"/>
			<path d="M955.691,471.875l3.051,2.507c1.51,1.39,2.028,2.342,1.555,2.855c-0.697,0.221-1.452,0.079-2.266-0.426
				s-1.543-1.054-2.188-1.646l-1.132-1.042c-1.447-1.332-2.176-2.212-2.188-2.64c-0.013-0.429,0.096-0.768,0.325-1.017l2.082-1.362
				l0.086-0.094c0.461-0.754,1.043-1.512,1.746-2.274l4.728-4.664l9.132-10.488l8.985-9.287c0.529-0.575,1.212-1.521,2.047-2.838
				c0.834-1.317,1.487-2.248,1.959-2.791l2.098-0.528l3.76,2.685l0.036,0.292c0.755,0.694,1.102,1.194,1.04,1.497
				s-0.192,0.563-0.393,0.781c-0.559,0.607-1.42,0.375-2.584-0.695l-1.211-1.288c-0.707-0.651-1.233-0.79-1.577-0.417l-7.103,8.475
				l-5.739,5.76l-0.18,0.007l0.132,0.424l3.116,1.963c0.173,0.159,0.279,0.423,0.319,0.79c0.039,0.367-0.026,0.645-0.198,0.831
				c-0.588,0.639-1.126,0.732-1.612,0.284l-1.065-1.067c-1.227-1.129-2.119-1.39-2.679-0.782l-3.343,4.342l-0.424,0.128
				l-8.941,9.715c-0.014,0.361-0.336,0.885-0.966,1.569L955.691,471.875z"/>
			<path d="M985.901,483.213l-2.005,1.954c-0.071,0.079-0.186,0.303-0.344,0.672c-2.334,2-4.185,3.22-5.551,3.658
				c-1.367,0.438-2.611,0.603-3.732,0.494c-1.121-0.109-2.436-0.411-3.941-0.907c-0.237-0.184-0.63-0.386-1.178-0.606
				c-0.549-0.221-0.941-0.438-1.181-0.651c-1.274-1.14-1.714-1.931-1.319-2.372l11.221-12.063l17.735-20.502
				c2.073-2.318,3.532-3.1,4.377-2.345c2.229,1.994,3.295,4.226,3.196,6.691c-0.099,2.467-1.22,4.898-3.364,7.296
				s-5.523,4.06-10.136,4.985c-0.146,1.092-0.268,2.302-0.367,3.632l-0.271,2.995c-0.142,1.889-0.51,3.327-1.104,4.312
				C987.341,481.442,986.663,482.361,985.901,483.213z M969.633,485.822l0.269,0.325c1.004,0.897,2.629,1.437,4.877,1.616
				c2.248,0.179,3.809-0.035,4.684-0.645c0.874-0.609,1.848-1.513,2.919-2.711c5.177-5.788,6.879-10.512,5.105-14.17
				c-0.333-0.27-0.841-0.567-1.523-0.895c-0.683-0.326-1.142-0.566-1.377-0.72C980.514,473.497,975.529,479.23,969.633,485.822z
				 M996.879,454.495l-10.198,11.786l0.102,0.176c1.146,1.026,2.672,1.212,4.575,0.559c1.521-0.514,2.95-1.151,4.29-1.911
				c1.34-0.761,2.2-1.227,2.582-1.396l1.65-1.845c0.987-1.104,1.526-2.523,1.616-4.26c0.091-1.735-0.406-3.089-1.489-4.058
				C999.163,452.791,998.12,453.107,996.879,454.495z"/>
			<path d="M1009.426,505.464l0.834-2.466c0.755-2.425,1.489-5.287,2.203-8.589c0.714-3.301,1.163-5.355,1.347-6.162
				c-0.064-0.44,0.64-3.063,2.113-7.868c1.472-4.805,2.255-7.48,2.347-8.028s0.113-1.228,0.064-2.041
				c-0.049-0.812-0.008-1.432,0.124-1.855c0.309-0.99,2.033-0.996,5.176-0.019l0.307,0.096c1.592,0.495,3.035,1.897,4.331,4.206
				c1.296,2.31,2.007,4.248,2.135,5.816c0.127,1.568-0.021,3.356-0.444,5.363c-0.423,2.007-0.851,3.829-1.281,5.468
				c-0.432,1.639-0.611,2.701-0.539,3.189l-0.642,1.629l0.09,0.359l-0.345,0.458l0.09,0.36c-0.364,0.308-0.666,0.846-0.905,1.613
				c-0.238,0.769-0.5,1.462-0.782,2.083c-0.283,0.622-0.521,1.101-0.717,1.439c-0.194,0.338-0.501,0.836-0.917,1.492
				c-0.418,0.657-1.065,1.713-1.943,3.169c-2.526,4.089-5.445,6.781-8.758,8.077s-5.209,1.869-5.688,1.72s-0.937-0.407-1.37-0.775
				c-0.435-0.367-0.618-0.763-0.554-1.187c0.824-0.562,1.408-1.29,1.753-2.18L1009.426,505.464z M1020.464,470.64l-2.655,10.476
				c-0.83,2.667-1.903,6.671-3.218,12.012c-1.315,5.341-2.261,8.937-2.836,10.785s-1.25,3.871-2.022,6.068l0.047,0.28l-0.547,1.758
				l0.306,0.095c1.829-0.339,3.586-1.095,5.271-2.266c1.685-1.171,3.121-2.496,4.31-3.977c1.188-1.48,2.308-3.154,3.358-5.021
				c1.691-3.063,3.016-6.13,3.971-9.201c3.767-12.102,2.282-19.2-4.451-21.296C1021.16,470.092,1020.649,470.188,1020.464,470.64z"
				/>
			<path d="M1040.18,520.232l3.949,0.009c2.048,0.12,3.052,0.528,3.011,1.226c-0.4,0.612-1.074,0.981-2.023,1.105
				c-0.95,0.124-1.861,0.161-2.736,0.11l-1.536-0.09c-1.963-0.115-3.084-0.335-3.365-0.659c-0.28-0.323-0.411-0.654-0.391-0.992
				l0.749-2.372l0.007-0.127c-0.12-0.876-0.149-1.831-0.089-2.866l0.708-6.604l0.43-13.9l1.076-12.876
				c0.045-0.781-0.025-1.946-0.213-3.494s-0.271-2.681-0.25-3.4l1.289-1.736l4.61-0.303l0.213,0.203
				c1.023,0.061,1.607,0.228,1.752,0.5c0.145,0.274,0.209,0.559,0.191,0.854c-0.049,0.823-0.862,1.189-2.44,1.097l-1.753-0.23
				c-0.96-0.056-1.455,0.17-1.484,0.677l-0.135,11.056l-0.795,8.093l-0.136,0.119l0.371,0.244l3.655-0.453
				c0.234,0.014,0.483,0.15,0.747,0.409c0.263,0.259,0.387,0.516,0.372,0.769c-0.051,0.866-0.407,1.279-1.068,1.241l-1.5-0.151
				c-1.664-0.098-2.521,0.266-2.568,1.089l0.16,5.478l-0.246,0.367l-0.772,13.181c0.219,0.289,0.301,0.897,0.246,1.827
				L1040.18,520.232z"/>
			<path d="M1067.891,523.85c-0.15,0.006-0.484-0.066-1.003-0.217c-0.909-3.12-2.283-9.483-4.122-19.091
				c-1.838-9.606-3.223-16.658-4.151-21.155c-0.929-4.495-1.668-7.21-2.216-8.142c0.131-0.471,0.561-0.721,1.287-0.748
				c0.704-0.026,1.192,0.739,1.466,2.295c0.051,0.21,0.256,1.113,0.615,2.709s1.354,6.824,2.982,15.688s3.1,15.674,4.413,20.431
				c0.187-1.277,0.316-2.521,0.389-3.73c0.071-1.21,0.412-5.648,1.021-13.314c1.101-13.868,1.617-21.712,1.549-23.53l-0.01-0.254
				c0.617-0.658,1.149-0.996,1.598-1.013l0.395,0.239l-0.128,0.005l0.691,0.481c0.034,0.909-0.07,2.258-0.312,4.046
				c-0.242,1.787-0.347,3.137-0.312,4.045c-0.418,0.821-1.028,7.032-1.83,18.634s-1.177,18.651-1.125,21.147
				C1068.758,523.34,1068.359,523.832,1067.891,523.85z M1067.17,515.81l-0.123,0.163l0.225-0.009L1067.17,515.81z"/>
			<path d="M1090.58,520.77l3.848-0.89c2.021-0.349,3.092-0.179,3.211,0.509c-0.251,0.688-0.823,1.2-1.72,1.537
				s-1.775,0.58-2.639,0.729l-1.517,0.262c-1.938,0.335-3.08,0.376-3.427,0.124c-0.347-0.251-0.549-0.544-0.606-0.877l0.189-2.48
				l-0.021-0.125c-0.316-0.826-0.562-1.75-0.738-2.771l-0.812-6.592l-2.742-13.633l-1.881-12.784
				c-0.133-0.771-0.467-1.89-1.001-3.354c-0.535-1.464-0.874-2.549-1.018-3.254l0.861-1.984l4.42-1.343l0.254,0.149
				c1.011-0.174,1.617-0.145,1.82,0.089s0.33,0.496,0.38,0.788c0.141,0.812-0.568,1.354-2.127,1.623l-1.759,0.175
				c-0.948,0.163-1.379,0.495-1.292,0.995l2.383,10.797l1.065,8.062l-0.104,0.147l0.417,0.153l3.456-1.272
				c0.231-0.04,0.505,0.036,0.82,0.229c0.314,0.192,0.494,0.414,0.537,0.664c0.147,0.855-0.105,1.339-0.758,1.451l-1.495,0.193
				c-1.643,0.284-2.394,0.832-2.254,1.646l1.402,5.298l-0.156,0.413l2.244,13.011c0.278,0.231,0.497,0.806,0.655,1.723
				L1090.58,520.77z"/>
			<path d="M1116.947,517.071l-1.967,0.588c-0.223,0.074-0.465,0.294-0.726,0.659c-0.262,0.366-0.534,0.597-0.817,0.69
				c-0.284,0.095-0.617,0.061-0.997-0.103c-0.382-0.163-0.629-0.415-0.742-0.757l-0.567-2.922l-6.435-17.293l-9.222-25.563
				c-0.14-0.422,0.063-0.724,0.611-0.906c0.79-0.263,1.31-0.023,1.557,0.72c3.162,9.495,5.267,15.479,6.315,17.951
				c1.048,2.473,1.673,4.009,1.873,4.611c0.201,0.603,0.428,1.419,0.681,2.449l0.263,0.181c0.28,1.11,0.605,2.224,0.977,3.338
				s1.188,3.212,2.45,6.292c1.262,3.081,2.134,5.277,2.616,6.589c-0.083,0.295-0.026,0.733,0.168,1.315
				c0.193,0.583,0.42,0.942,0.68,1.078c0.259,0.137,0.703,0.101,1.332-0.108c0.628-0.21,1.011-0.481,1.146-0.817l2.312-0.77
				c0.661,0.093,1.053,0.318,1.173,0.68c0.268,0.804,0.117,1.3-0.45,1.488c-0.143,0.048-0.483,0.071-1.023,0.073
				C1117.979,516.684,1117.575,516.861,1116.947,517.071z"/>
			<path d="M1137.937,487.829l3.079,7.816l0.226,0.174c0.324,1.464,0.738,2.721,1.242,3.77s0.812,2.233,0.924,3.552
				c0.112,1.319-0.037,2.624-0.449,3.913c-0.412,1.29-1.1,2.166-2.062,2.629c-0.964,0.463-2.033,0.53-3.209,0.203
				c-1.177-0.326-2.312-0.926-3.406-1.797c-1.094-0.87-2.222-1.983-3.383-3.34c-1.161-1.354-2.216-2.726-3.167-4.112
				c-0.95-1.386-1.888-2.843-2.811-4.371c-1.515-2.559-2.74-4.815-3.68-6.771s-1.922-4.223-2.949-6.805s-1.705-4.239-2.034-4.974
				s-0.616-1.382-0.862-1.945c-0.247-0.562-0.518-1.248-0.812-2.058c-0.294-0.809-0.518-1.534-0.672-2.177
				c-0.154-0.642-0.253-1.327-0.296-2.059c-0.043-0.73,0.022-1.384,0.196-1.96c0.379-1.285,1.295-2.277,2.749-2.976
				c1.454-0.699,2.842-0.884,4.161-0.556c0.235,0.146,0.812,0.443,1.729,0.896c0.916,0.452,1.672,0.939,2.268,1.463
				c0.595,0.524,1.685,1.99,3.269,4.398C1132.137,476.966,1135.454,482.661,1137.937,487.829z M1117.391,466.01
				c-2.909,1.397-1.582,7.885,3.979,19.462l1.099,2.288c1.302,2.709,2.908,5.522,4.82,8.441c1.912,2.92,3.562,5.243,4.949,6.972
				c1.387,1.728,2.819,3.081,4.298,4.062c1.479,0.979,2.719,1.229,3.721,0.748c1.348-0.647,1.678-2.479,0.988-5.493
				c-0.689-3.014-1.484-5.606-2.386-7.779c-1.258-2.964-2.098-4.884-2.519-5.762l-0.674-1.401c-0.348-0.725-0.648-1.338-0.9-1.839
				c-0.253-0.5-0.666-1.323-1.239-2.468c-0.574-1.145-1.104-2.151-1.593-3.02c-0.489-0.869-1.088-1.919-1.799-3.15
				c-0.71-1.231-1.392-2.307-2.047-3.225c-0.654-0.918-1.364-1.891-2.131-2.92c-0.767-1.027-1.506-1.876-2.218-2.543
				c-0.712-0.668-1.439-1.257-2.184-1.769C1120.051,465.601,1118.662,465.399,1117.391,466.01z"/>
			<path d="M1148.802,479.202l11.917,17.773c0.34,0.535,0.526,1,0.561,1.392c0.033,0.393-0.189,0.74-0.667,1.043
				c-0.479,0.304-1.12-0.179-1.925-1.447l-6.021-9.975l-6.077-8.623c-2.583-4.074-4.761-7.396-6.531-9.97
				c-1.771-2.572-2.947-4.288-3.53-5.146c-0.582-0.858-1.024-1.505-1.325-1.94c-0.985-1.354-1.896-2.431-2.731-3.229
				c0.015-0.735,0.328-1.298,0.942-1.687c1.316-0.836,2.696-1.284,4.138-1.347c1.44-0.062,2.788,0.198,4.044,0.78
				c2.603,1.23,4.583,2.918,5.943,5.062c1.36,2.144,2.354,4.57,2.983,7.277c0.805,3.424,0.647,5.929-0.472,7.516
				c-0.362,0.506-0.566,0.923-0.61,1.252C1149.336,478.45,1149.124,478.873,1148.802,479.202z M1134.784,458.777l12.549,18.35
				l0.177,0.038c0.356-0.275,0.575-0.559,0.657-0.849s0.15-0.59,0.206-0.901c0.056-0.311,0.098-0.525,0.124-0.643
				c0.894-3.898,0.201-7.644-2.077-11.235c-0.793-1.251-1.481-2.217-2.066-2.898c-0.584-0.683-1.352-1.204-2.302-1.565
				c-0.951-0.361-1.708-0.577-2.271-0.646s-1.338-0.135-2.326-0.197c-0.988-0.062-1.545-0.091-1.669-0.088L1134.784,458.777z"/>
			<path d="M1180.876,483.498l2.878-2.704c1.571-1.318,2.582-1.71,3.03-1.175c0.13,0.72-0.107,1.451-0.713,2.192
				c-0.605,0.742-1.243,1.395-1.914,1.958l-1.179,0.988c-1.507,1.265-2.473,1.874-2.899,1.831c-0.426-0.042-0.748-0.193-0.966-0.453
				l-1.083-2.239l-0.082-0.097c-0.688-0.555-1.365-1.229-2.032-2.024l-4.018-5.288l-9.229-10.403l-8.056-10.103
				c-0.503-0.6-1.354-1.397-2.553-2.395c-1.199-0.997-2.037-1.764-2.517-2.302l-0.254-2.148l3.146-3.383l0.294,0.002
				c0.786-0.66,1.325-0.939,1.618-0.84s0.534,0.263,0.725,0.49c0.53,0.632,0.189,1.456-1.021,2.473l-1.433,1.036
				c-0.737,0.617-0.942,1.121-0.615,1.51l7.49,8.133l4.977,6.431l-0.017,0.18l0.438-0.077l2.347-2.838
				c0.18-0.151,0.455-0.223,0.824-0.215s0.635,0.108,0.799,0.304c0.558,0.664,0.582,1.21,0.074,1.635l-1.195,0.92
				c-1.276,1.071-1.65,1.923-1.12,2.556l3.877,3.873l0.073,0.436l8.485,10.116c0.356,0.06,0.834,0.446,1.433,1.159L1180.876,483.498
				z"/>
			<path d="M1162.629,439.932l-0.97-0.676c-0.287-0.25-0.143-0.705,0.434-1.365c1.181-1.353,2.458-2.061,3.833-2.123
				c1.374-0.062,2.594,0.165,3.658,0.683c1.064,0.519,1.877,0.907,2.436,1.168c1.211,0.575,2.088,1.099,2.63,1.571
				c1.643,1.434,3.219,3.617,4.729,6.553c0.946,1.875,1.5,2.883,1.659,3.021c1.594,1.392,5.372,3.555,11.335,6.488
				c5.963,2.935,10.314,4.874,13.056,5.819c1.068,0.933,1.413,1.615,1.033,2.05c-0.295,0.339-0.685,0.487-1.169,0.447
				c-0.484-0.039-0.772-0.057-0.862-0.05c-1.359-1.017-3.502-2.142-6.427-3.375c-2.926-1.233-4.841-2.097-5.745-2.588
				c-0.905-0.492-2.711-1.536-5.418-3.133c-2.707-1.596-4.83-2.768-6.368-3.515l-0.624,0.136l-0.439,1.276l18.365,16.026
				l1.304,0.968c0.654,0.57,0.721,1.153,0.201,1.749c-0.211,0.241-0.463,0.377-0.754,0.405c-0.292,0.029-0.558-0.061-0.797-0.27
				l-0.115-0.398l-29.557-26.132L1162.629,439.932z M1164.069,438.764l10.479,9.57c1.403,1.224,2.489,2.087,3.259,2.588l0.084-0.097
				c0.211-0.241,0.252-0.964,0.124-2.169c-0.129-1.203-0.291-2.096-0.485-2.678c-0.195-0.58-0.691-1.348-1.489-2.299
				c-0.799-0.952-1.505-1.696-2.118-2.232c-0.614-0.535-1.295-1.051-2.041-1.547c-0.747-0.495-1.596-0.987-2.545-1.476
				c-0.95-0.488-1.866-0.749-2.75-0.783c-0.884-0.032-1.571,0.231-2.062,0.796l-0.144-0.126L1164.069,438.764z"/>
		</g>
	</g>
</g>
<g>
	<g>
		<g>
			<path d="M1025.859,360.542l0.033-2.523c-0.029-2.461-0.208-5.32-0.536-8.577c-0.328-3.257-0.527-5.285-0.599-6.084
				c-0.191-0.387-0.326-3.016-0.403-7.886c-0.078-4.87-0.156-7.571-0.235-8.104c-0.079-0.532-0.262-1.166-0.55-1.901
				c-0.289-0.735-0.436-1.318-0.44-1.749c-0.012-1.004,1.577-1.526,4.767-1.563l0.311-0.004c1.616-0.019,3.366,0.843,5.251,2.584
				s3.119,3.316,3.706,4.725c0.586,1.408,0.983,3.101,1.193,5.078c0.21,1.977,0.36,3.785,0.452,5.424
				c0.092,1.64,0.243,2.674,0.456,3.102l-0.104,1.693l0.189,0.305l-0.18,0.525l0.189,0.306c-0.244,0.393-0.361,0.979-0.352,1.758
				c0.009,0.779-0.024,1.498-0.1,2.154c-0.075,0.658-0.152,1.171-0.23,1.541c-0.079,0.37-0.212,0.92-0.4,1.65
				c-0.188,0.73-0.47,1.897-0.844,3.502c-1.107,4.525-2.995,7.88-5.662,10.064c-2.667,2.186-4.244,3.28-4.73,3.286
				c-0.487,0.006-0.985-0.096-1.495-0.306c-0.511-0.209-0.799-0.519-0.865-0.928c0.592-0.766,0.913-1.61,0.965-2.534
				L1025.859,360.542z M1025.631,325.135l0.683,10.452c0.031,2.707,0.238,6.719,0.622,12.037c0.384,5.317,0.586,8.915,0.608,10.791
				c0.021,1.876,0.004,3.943-0.052,6.199l0.127,0.245l0.021,1.785l0.311-0.004c1.585-0.859,2.979-2.081,4.183-3.664
				c1.203-1.583,2.132-3.234,2.785-4.955c0.652-1.72,1.185-3.598,1.596-5.633c0.645-3.33,0.949-6.553,0.912-9.67
				c-0.144-12.283-3.633-18.385-10.468-18.305C1026.109,324.422,1025.667,324.664,1025.631,325.135z"/>
			<path d="M1052.062,368.729l3.808-0.391c1.986-0.091,2.995,0.202,3.025,0.878c-0.323,0.631-0.937,1.054-1.839,1.27
				s-1.778,0.344-2.626,0.382l-1.49,0.068c-1.903,0.088-3.007-0.011-3.31-0.295c-0.304-0.283-0.463-0.589-0.478-0.917l0.482-2.362
				l-0.006-0.123c-0.204-0.832-0.329-1.75-0.375-2.754l0.017-6.437l-0.989-13.442l-0.264-12.521
				c-0.034-0.758-0.221-1.873-0.558-3.347c-0.337-1.473-0.532-2.557-0.584-3.252l1.067-1.804l4.413-0.757l0.226,0.174
				c0.993-0.045,1.573,0.057,1.74,0.305c0.167,0.25,0.257,0.517,0.271,0.804c0.036,0.799-0.711,1.234-2.242,1.304l-1.712-0.044
				c-0.932,0.042-1.386,0.31-1.363,0.801l0.986,10.671l0.051,7.881l-0.119,0.128l0.383,0.198l3.478-0.806
				c0.228-0.01,0.481,0.096,0.761,0.319c0.279,0.224,0.426,0.458,0.437,0.704c0.039,0.84-0.263,1.274-0.904,1.304l-1.461,0.005
				c-1.614,0.074-2.403,0.51-2.366,1.309l0.708,5.264l-0.201,0.379l0.586,12.783c0.24,0.256,0.381,0.835,0.422,1.736
				L1052.062,368.729z"/>
			<path d="M1075.73,347.453l-0.018,0.253c0.004,0.021,0.768,1.53,2.292,4.528c1.071,2.351,1.727,4.191,1.965,5.524
				c0.237,1.333,0.312,2.663,0.224,3.991c-0.09,1.328-0.33,2.632-0.723,3.91c-0.393,1.278-1.046,2.39-1.961,3.335
				c-0.915,0.944-1.856,1.503-2.825,1.676s-1.66,0.275-2.075,0.309c-1.225,0.094-2.159-0.25-2.804-1.03
				c-0.09-0.505,0.084-0.797,0.522-0.875s1.058-0.027,1.858,0.152c0.8,0.181,1.536,0.21,2.209,0.09s1.323-0.632,1.951-1.535
				c0.628-0.904,1.044-1.957,1.25-3.161c0.404-2.447,0.428-4.675,0.069-6.684c-0.359-2.009-1.03-3.998-2.013-5.969
				c-0.983-1.97-2.071-3.734-3.265-5.292c-1.193-1.557-2.383-3.116-3.565-4.676c-2.828-3.703-4.567-7.371-5.216-11.005
				c-0.537-3.008-0.049-5.574,1.466-7.699c0.829-1.127,1.917-1.811,3.263-2.051c0.429-0.077,1.009-0.008,1.741,0.205
				s1.202,0.488,1.41,0.826l-0.243,0.762c-0.938,0.167-1.659,0.078-2.163-0.27c-0.999,0.179-1.788,0.705-2.368,1.579
				c-1.101,1.614-1.453,3.53-1.057,5.751c0.292,1.635,0.667,2.97,1.125,4.002c0.458,1.033,0.809,1.819,1.053,2.359
				c0.243,0.54,0.626,1.211,1.148,2.014c0.522,0.803,0.907,1.4,1.156,1.793c0.249,0.393,0.71,1.03,1.383,1.91
				s1.11,1.447,1.313,1.703c0.204,0.255,0.703,0.87,1.497,1.842C1075.126,346.691,1075.593,347.269,1075.73,347.453z"/>
			<path d="M1101.97,361.738l-2.005,0.392c-0.449,0.161-0.823,0.557-1.125,1.188c-0.897,0.322-1.519,0.37-1.862,0.145l-0.146,0.053
				c-1.833,0.657-3.017,0.701-3.552,0.13c-0.159-0.444,0.22-0.831,1.136-1.159l1.337-0.414c0.8-0.287,1.005-1.003,0.615-2.149
				c-0.389-1.146-0.94-2.517-1.656-4.112c-0.715-1.595-1.378-3.199-1.989-4.81c-0.61-1.611-1.855-4.727-3.732-9.348
				c-1.878-4.621-3.212-7.944-4.005-9.969l-2.435-6.97c-0.686-1.911-1.155-3.039-1.411-3.383l-1.892,1.168
				c-0.429,0.154-0.742-0.044-0.939-0.594s0.518-1.318,2.145-2.305c1.626-0.986,2.751-1.591,3.376-1.815
				c1.053-0.377,1.694-0.243,1.927,0.404c0.232,0.647,0.104,1.058-0.383,1.232l-1.454,0.457c-0.683,0.245-0.978,0.71-0.886,1.396
				c0.051,0.57,0.533,2.129,1.446,4.677c0.914,2.548,2.974,7.507,6.178,14.876c3.205,7.37,5.489,12.956,6.854,16.758l1.042,3.09
				l2.102-0.95c1.033-0.371,1.727-0.063,2.08,0.921L1101.97,361.738z"/>
			<path d="M1120.082,338.682c1.197-0.57,2.175-0.058,2.933,1.534c0.538,1.13,1.533,2.728,2.988,4.795
				c1.454,2.067,2.45,3.666,2.987,4.795c0.282,0.592,0.171,1.009-0.334,1.25c-0.917,0.436-1.573,0.237-1.97-0.596
				c-0.009-0.019-0.021-0.069-0.038-0.152c-0.017-0.083-0.029-0.134-0.038-0.152c-0.321,0.29-0.68,0.79-1.075,1.5
				c-0.396,0.71-0.722,1.184-0.977,1.418c-0.256,0.235-0.679,0.516-1.269,0.842c-0.59,0.326-0.981,0.648-1.174,0.967l0.112-0.053
				c-2.789,0.646-5.093,0.675-6.909,0.086c-1.46-0.463-2.933-1.727-4.419-3.791c-2.5-3.42-5.725-9.279-9.673-17.575
				c-1.551-3.259-2.56-5.618-3.024-7.078c-0.465-1.459-0.839-2.763-1.122-3.912s-0.453-2.181-0.51-3.096
				c-0.058-0.915-0.042-1.882,0.047-2.901c0.089-1.018,0.304-1.916,0.646-2.692c0.771-1.752,2.083-3.069,3.935-3.951
				c1.141-0.543,1.866-0.49,2.175,0.158c0.22,0.463,0.05,0.828-0.512,1.095l-1.772,0.469c-2.937,1.398-3.57,4.959-1.9,10.683
				c0.888,3.12,2.443,7.013,4.664,11.68c1.315,3.053,2.249,5.159,2.8,6.316s0.987,2.051,1.311,2.681
				c0.322,0.63,0.745,1.412,1.27,2.343c0.523,0.932,1.048,1.745,1.572,2.437c0.524,0.693,1.111,1.43,1.759,2.212
				c0.647,0.782,1.319,1.411,2.016,1.886c0.695,0.475,1.429,0.87,2.198,1.185c1.594,0.65,3.335,0.525,5.224-0.375
				c1.89-0.899,3.002-2.586,3.337-5.063c-1.349-2.833-2.44-4.681-3.275-5.544c-0.835-0.863-1.402-1.224-1.701-1.081l-2.195,1.317
				c-0.879,0.418-1.473,0.304-1.781-0.345c-0.167-0.351,0.258-0.917,1.274-1.696
				C1118.677,339.499,1119.483,338.966,1120.082,338.682z"/>
			<path d="M1149.948,337.997l1.031,2.038c0.464,1.139,0.197,1.913-0.8,2.319c-0.69,0.281-1.459-0.258-2.304-1.62
				c-0.413-0.629-0.645-0.977-0.694-1.045c-8.719-10.421-14.703-18.192-17.952-23.312c-0.108-0.155-0.245-0.409-0.411-0.763
				c-0.355-0.763-0.763-1.239-1.22-1.43l-0.001-0.332c-0.838-1.341-1.433-2.267-1.786-2.777c-0.353-0.509-0.749-1.084-1.188-1.725
				c-0.771-1.125-1.569-2.095-2.394-2.911c0.21,0.845,0.399,1.476,0.57,1.894c0.17,0.418,0.34,0.725,0.509,0.922
				c0.104,1.021,0.519,2.424,1.246,4.209l6.511,15.982c0.759,1.861,2.022,4.58,3.792,8.154c1.77,3.575,3.034,6.293,3.792,8.154
				l-0.217,0.62l-1.353,0.551l-0.358-0.385c-0.048-0.335-0.326-1.13-0.837-2.383l-8.937-20.042l-3.111-7.635l-4.06-11.201
				l-0.557-1.202c-0.201-0.494-0.205-0.874-0.012-1.141c0.193-0.267,0.495-0.484,0.908-0.652c0.412-0.168,0.82-0.195,1.224-0.083
				c0.403,0.113,0.71,0.425,0.919,0.938s0.523,1.038,0.943,1.575c0.421,0.538,0.946,1.115,1.578,1.732
				c0.632,0.618,1.165,1.198,1.599,1.741c0.434,0.543,1.004,1.462,1.71,2.757c0.707,1.296,1.379,2.423,2.016,3.381
				c0.636,0.958,1.554,2.223,2.753,3.794c1.199,1.571,2.548,3.303,4.046,5.195c1.497,1.893,2.471,3.14,2.917,3.744
				c0.448,0.604,1.028,1.37,1.741,2.296c1.496,1.916,2.445,3.312,2.847,4.188c0.432,0.289,0.951,0.974,1.56,2.055
				c0.607,1.081,1.246,1.729,1.915,1.943c0.025-0.652-0.229-1.634-0.764-2.944l-8.045-20.406l-3.852-8.96l-0.732-2.292
				c-0.171-0.417-0.329-0.641-0.475-0.67l-0.024-0.555c-0.976-2.393-1.702-3.957-2.181-4.692c-0.063-0.594,0.317-1.06,1.143-1.396
				c0.633-0.258,1.209,0.25,1.728,1.522c-0.049,0.596,0.09,1.292,0.415,2.089l0.858,1.942c0.341,0.836,0.503,1.456,0.489,1.86
				l7.337,18.502c0.146,0.361,0.397,0.867,0.753,1.52l-0.011,0.303l2.995,7.35l1.009,2.147c0.943,2.317,1.401,3.991,1.374,5.021
				L1149.948,337.997z"/>
			<path d="M1161.764,336.878l3.683-1.045c1.94-0.435,2.984-0.322,3.132,0.339c-0.209,0.677-0.739,1.201-1.59,1.57
				c-0.853,0.369-1.691,0.647-2.521,0.833l-1.455,0.326c-1.86,0.417-2.964,0.511-3.312,0.285c-0.348-0.227-0.558-0.5-0.629-0.821
				l0.064-2.41l-0.026-0.12c-0.346-0.784-0.628-1.667-0.848-2.647l-1.102-6.342l-3.309-13.066l-2.433-12.285
				c-0.166-0.74-0.543-1.807-1.131-3.199c-0.587-1.392-0.968-2.426-1.14-3.102l0.738-1.962l4.215-1.511l0.252,0.133
				c0.971-0.217,1.56-0.218,1.767-0.001c0.208,0.216,0.344,0.464,0.406,0.744c0.175,0.781-0.486,1.338-1.981,1.673l-1.694,0.253
				c-0.91,0.204-1.311,0.545-1.203,1.026l2.824,10.338l1.418,7.752l-0.095,0.147l0.411,0.129l3.285-1.397
				c0.222-0.05,0.49,0.011,0.805,0.182c0.313,0.171,0.498,0.377,0.552,0.617c0.184,0.821-0.038,1.301-0.664,1.441l-1.438,0.259
				c-1.576,0.353-2.277,0.92-2.103,1.7l1.611,5.062l-0.132,0.408l2.797,12.487c0.28,0.211,0.52,0.756,0.716,1.637L1161.764,336.878z
				"/>
			<path d="M1170.725,290.841l-0.253-1.117c-0.042-0.367,0.358-0.598,1.203-0.695c1.729-0.198,3.105,0.129,4.131,0.982
				c1.025,0.853,1.75,1.812,2.175,2.878c0.424,1.066,0.751,1.875,0.981,2.427c0.492,1.203,0.778,2.151,0.857,2.843
				c0.24,2.099-0.057,4.692-0.892,7.781c-0.547,1.962-0.808,3.045-0.784,3.248c0.233,2.038,1.526,6.054,3.882,12.049
				c2.354,5.996,4.205,10.227,5.551,12.694c0.156,1.365-0.043,2.08-0.599,2.143c-0.433,0.049-0.81-0.099-1.13-0.443
				c-0.321-0.345-0.516-0.545-0.585-0.599c-0.31-1.616-1.109-3.821-2.399-6.615c-1.289-2.793-2.098-4.662-2.425-5.605
				c-0.327-0.943-0.938-2.87-1.835-5.781c-0.896-2.911-1.651-5.136-2.266-6.676l-0.536-0.311l-1.147,0.627l2.688,23.472l0.302,1.544
				c0.096,0.835-0.237,1.297-0.998,1.384c-0.309,0.036-0.577-0.032-0.805-0.202c-0.229-0.17-0.359-0.408-0.395-0.713l0.178-0.361
				l-4.105-38.017L1170.725,290.841z M1172.52,290.945l1.256,13.697c0.206,1.793,0.42,3.121,0.645,3.982l0.123-0.014
				c0.309-0.036,0.81-0.526,1.505-1.473c0.693-0.946,1.161-1.691,1.401-2.235c0.239-0.543,0.385-1.417,0.435-2.62
				c0.05-1.203,0.029-2.197-0.061-2.981s-0.24-1.598-0.451-2.441c-0.212-0.843-0.498-1.749-0.859-2.719
				c-0.36-0.97-0.847-1.755-1.458-2.356c-0.611-0.601-1.276-0.86-1.996-0.777l-0.021-0.184L1172.52,290.945z"/>
		</g>
	</g>
</g>
<g>
	<g>
		<path fill="#E6E6E6" d="M-91.928,455.694c20.107-8.543,41.45-15.051,59.423-27.849c17.609-12.538,33.138-35.142,29.48-57.737
			c-1.517-9.368-9.799-16.5-14.709-24.144c-6.202-9.66-9.22-20.223-10.662-31.53c-2.732-21.431-0.101-44.946-9.483-64.985
			c-6.652-14.209-22.155-20.559-36.254-24.664c-7.143-2.08-14.216-4.079-20.746-7.736c-8.23-4.61-13.988-12.056-18.399-20.232
			c-9.254-17.151-10.649-36.998-15.091-55.603c-4.66-19.522-16.263-34.5-32.221-46.368c-5.108-3.799-12.033,3.432-6.853,7.285
			c9.686,7.204,18.244,15.44,23.926,26.198c4.371,8.275,6.169,17.746,7.866,26.856c4.096,22.017,8.877,45.814,25.13,62.408
			c12.952,13.223,30.971,14.157,46.944,21.417c7.885,3.584,14.685,9.38,17.973,17.527c3.962,9.82,4.481,20.894,5.162,31.332
			c1.137,17.461,1.18,36.025,8.326,52.327c3.572,8.142,8.633,15.167,14.04,22.153c5.324,6.878,6.467,12.931,4.608,21.498
			c-8.276,38.16-50.164,49.031-81.291,62.257C-100.623,448.595-97.857,458.213-91.928,455.694L-91.928,455.694z"/>
	</g>
</g>
</svg>
