<?xml version="1.0" encoding="utf-8"?>
<!-- Generator: Adobe Illustrator 16.0.0, SVG Export Plug-In . SVG Version: 6.00 Build 0)  -->
<!DOCTYPE svg PUBLIC "-//W3C//DTD SVG 1.1//EN" "http://www.w3.org/Graphics/SVG/1.1/DTD/svg11.dtd">
<svg version="1.1" id="Layer_1" xmlns="http://www.w3.org/2000/svg" xmlns:xlink="http://www.w3.org/1999/xlink" x="0px" y="0px"
	 width="1366px" height="768px" viewBox="-49.5 -12 1366 768" enable-background="new -49.5 -12 1366 768" xml:space="preserve">
<image display="none" overflow="visible" enable-background="new    " width="2538" height="1360" xlink:href="Screen Shot 2015-06-23 at 7.40.53 PM.png"  transform="matrix(0.5 0 0 0.5 0 22)">
</image>
<g>
	<g>
		<path fill="#E6E6E6" d="M1198.855,40.956c5.575,0.776,11.144,0.739,16.755,0.993c4.856,0.22,10.21,0.778,12.718,5.458
			c3.146,5.872-0.814,12.307-5.088,16.141c-4.242,3.805-9.648,6.166-14.238,9.507c1.683,0,3.364,0,5.047,0
			c-4.619-1.953-9.326,1.961-13.05,4.398c-6.685,4.373-13.042,9.371-18.821,14.883c-10.595,10.106-22.26,28.12-5.808,38.833
			c8.458,5.509,19.601,5.859,29.092,8.481c11.672,3.225,23.284,9.14,31.698,17.905c4.174,4.348,7.183,10.31,6.18,16.451
			c-0.993,6.083-5.338,10.967-9.691,15.006c-8.525,7.909-19.321,11.842-30.303,14.94c-9.159,2.585-18.552,4.855-26.686,10.003
			c-3.921,2.481-7.338,5.724-10.11,9.433c-2.98,3.989-7.446,10.678-7.446,15.839c0,9.746,11.918,13.205,19.452,14.135
			c11.534,1.423,23.564-0.754,35.032-1.918c6.352-0.645,6.414-10.651,0-10c-11.583,1.176-23.376,3.047-35.032,1.918
			c-3.22-0.312-7.395-1.192-9.194-4.156c-1.047-1.724,5.408-10.339,7.344-12.43c6.391-6.906,15.948-9.476,24.698-11.908
			c10.181-2.83,20.447-5.712,29.49-11.361c9.861-6.161,19.437-15.106,22.089-26.844c2.875-12.713-5.366-24.052-14.692-31.685
			c-8.81-7.209-20.283-12.241-31.213-15.261c-8.771-2.423-21.031-2.268-27.894-8.979c-3.088-3.02-0.209-8.365,1.521-11.243
			c3.309-5.503,8.269-10.045,13.083-14.209c4.42-3.822,9.175-7.26,14.104-10.392c1.513-0.961,3.056-1.884,4.654-2.693
			c0.531-0.249,0.41-0.207-0.363,0.126c1.464-0.614,0.71,1.006-3.182-0.64c2.152,0.91,3.897,0.836,5.816-0.56
			c5.993-4.363,12.725-7.405,17.911-12.857c5.799-6.094,7.771-14.637,5.538-22.689c-4.56-16.454-24.047-12.501-36.754-14.27
			C1195.211,30.436,1192.492,40.07,1198.855,40.956L1198.855,40.956z"/>
	</g>
</g>
<g>
	<g>
		<path fill="#E6E6E6" d="M421.297-105.581c2.896,10.641,11.559,18.278,17.008,27.559c2.375,4.046,3.559,8.64,1.369,13.039
			c-1.792,3.6-6.313,3.496-9.749,3.292c-9.342-0.557-18.082-4.451-27.563-4.679c-6.306-0.152-13.949,1.694-16.703,8.059
			c-2.626,6.07-0.775,12.759,1.58,18.614c2.99,7.434,7.06,14.371,11.096,21.271c4.442,7.594,8.706,14.973,11.141,23.506
			c1.769,6.195,3.34,15.918-2.977,20.174c-7.209,4.856-17.844,1.225-25.451-0.691c-9.586-2.414-19.809-4.855-29.687-2.912
			c-10.628,2.09-14.634,13.469-14.663,23.116c-0.038,12.867,7.061,26.353,15.12,35.974c14.513,17.327,40.74,19.84,54.441,37.887
			c4.983,6.564,7.883,15.227,5.588,23.358c-2.738,9.704-13.911,12.055-22.648,11.547c-6.21-0.361-12.325-2.911-18.052-5.145
			c-6.341-2.473-12.844-4.452-19.345-6.462c-9.924-3.069-19.846-6.236-29.984-8.534c-9.758-2.211-20.035-3.969-30.068-3.294
			c-10.337,0.694-16.707,5.497-21.324,14.772c-9.706,19.497,7.315,35.813,23.042,44.621c12.442,6.969,25.481,12.687,37.7,20.116
			c7.528,4.578,14.866,9.58,21.258,15.671c4.137,3.943,8.905,9.18,8.499,15.245c-0.48,7.163-9.063,11.457-15.068,12.831
			c-8.163,1.868-17.127,0.526-25.202-1.144c-13.447-2.781-26.013-8.755-39.71-10.415c-8.214-0.995-18.209-0.591-23.557,6.729
			c-5.413,7.409-5.363,18.431-1.961,26.605c8.398,20.177,31.406,27.654,43.118,45.335c9.205,13.896,6.817,28.431-2.56,41.506
			c-8.854,12.347-24.397,17.684-35.167,28.09c-4.644,4.487,2.435,11.552,7.071,7.07c9.036-8.73,20.776-13.886,30.073-22.328
			c9.437-8.567,15.873-21.345,16.714-34.042c0.81-12.218-5.462-23.471-12.9-32.623c-5.458-6.716-12.278-11.435-19.087-16.633
			c-6.945-5.303-13.731-11.363-17.689-19.281c-3.177-6.354-3.314-18.131,4.879-20.364c7.432-2.026,16.399,0.743,23.542,2.833
			c5.373,1.573,10.615,3.54,16.01,5.056c15.518,4.359,35.392,8.057,49.904-1.133c6.461-4.092,11.537-11.626,11.643-19.407
			c0.095-7.021-4.401-13.334-8.867-18.318c-11.636-12.987-28.344-21.862-43.582-29.866c-12.294-6.458-26.071-11.534-35.619-22.03
			c-7.414-8.151-6.36-18.438,0.963-26.373c2.03-2.2,6.188-2.411,8.944-2.596c5.106-0.343,10.316,0.184,15.364,0.928
			c21.906,3.229,43.746,10.885,64.37,18.635c11.582,4.352,23.763,5.676,35.336,0.703c7.814-3.357,13.142-11.076,14.399-19.34
			c3.179-20.882-13.211-36.316-29.768-45.589c-10.125-5.671-21.145-10.246-29.953-17.965c-9.445-8.278-16.446-22.825-15.791-35.451
			c0.216-4.168,2.046-9.062,6.277-10.407c4.549-1.447,9.999-0.513,14.581,0.278c9.659,1.667,18.896,5.179,28.761,5.592
			c8.448,0.354,16.808-2.601,21.448-9.939c4.623-7.309,3.349-17.165,1.276-25.047c-4.307-16.382-15.789-29.349-22.237-44.777
			c-1.329-3.18-2.569-6.606-2.541-10.085c0.006-0.787,0.32-1.779,0.576-2.082c0.687-0.811,1.981-1.241,3.386-1.568
			c10.518-2.457,22.14,3.833,32.655,4.461c12.37,0.738,21.374-8.793,19.683-21.22c-1.922-14.129-16.089-22.128-19.699-35.389
			C429.248-114.455,419.601-111.813,421.297-105.581L421.297-105.581z"/>
	</g>
</g>
<g>
	<g>
		<path fill="#E6E6E6" d="M95.54,515.156c2.897-21.89,21.382-37.925,41.746-43.784c23.32-6.71,45.6,2.972,61.041,20.771
			c8.078,9.312,13.348,20.922,15.34,33.048c1.785,10.863-1.492,21.421-6.504,30.973c-5.257,10.02-12.895,19.281-22.628,25.195
			c-4.051,2.461-8.542,3.644-13.127,4.67c-1.937,0.434-2.639-0.529-0.977,0.911c0.919,0.797,0.574,1.497,0.481,0.415
			c-0.104-1.205,0.013-2.44,0.093-3.644c1.713-25.681,27.861-42.757,49.729-51.157c11.006-4.228,22.738-6.484,34.532-5.562
			c12.822,1.005,25.106,8.276,37.048,12.579c27.579,9.933,56.338,14.234,85.142,7.126c22.553-5.566,31.595-26.535,32.536-47.983
			c0.382-8.713,0.138-18.143-4.696-25.707c-3.911-6.12-10.209-10.172-16.812-12.865c-15.911-6.49-34.339-6.438-51.223-5.518
			c-15.64,0.854-31.701,2.671-46.988,6.192c-11.953,2.753-23.013,8.647-34.539,12.699c-10.709,3.767-22.858,6.085-32.459-1.567
			c-8.607-6.86-13.3-18.011-18.053-27.615c-4.797-9.692-9.979-19.447-18.216-26.686c-19.734-17.342-48.495-11.145-70.842-3.688
			c-15.118,5.045-31.979,4.969-47.655,7.117c-15.613,2.14-32.839,5.696-44.404,17.255c-11.763,11.76-14.13,32.668-4.144,46.143
			c5.176,6.984,12.47,11.902,19.408,16.969c6.084,4.441,12.729,9.458,14.84,17.038c2.442,8.771-3.985,15.632-9.683,21.335
			c-6.523,6.53-13.201,12.836-16.261,21.791c-3.197,9.354-0.406,19.8,7.514,25.645c3.506,2.587,8.177,3.78,12.339,4.79
			c5.531,1.341,11.115,2.536,16.665,3.797c13.426,3.049,26.725,6.828,38.641,13.899c10.582,6.278,22.521,16.579,22.812,29.837
			c0.247,11.226-7.96,21.71-14.37,30.178c-7.405,9.784-15.71,19.019-21.469,29.932c-1.148,2.176-0.788,5.734,1.794,6.842
			c11.281,4.836,23.573,5.6,35.701,6.107c12.938,0.543,25.48,1.015,38.186,3.733c10.757,2.303,21.328,5.006,32.38,3.406
			c11.59-1.677,20.422-10.034,28.366-17.938c17.281-17.19,33.351-36.934,55.683-47.802c5.851-2.849,18.116-8.331,21.599,0.318
			c3.098,7.694,2.737,16.531,4.918,24.502c2.736,10.003,9.178,17.834,18.936,21.445c9.544,3.532,20.705,1.896,30.624,1.68
			c14.615-0.32,29.478,1.812,43.904,3.923c7.441,1.088,14.855,2.358,22.258,3.687c7.381,1.322,15.242,2.174,22.437,4.289
			c8.788,2.582,17.318,5.715,26.505,6.609c10.065,0.979,17.387-6.265,20.406-15.33c2.84-8.525,1.252-19.246-1.738-27.529
			c-1.987-5.503-6.131-9.496-10.696-12.943c-7.373-5.565-16.292-9.095-24.763-12.6c-9.454-3.913-19.062-7.457-28.315-11.84
			c-7.869-3.728-15.877-8.076-21.52-14.873c-5.088-6.129-4.432-14.02-1.215-20.867c2.726-5.801-5.895-10.881-8.635-5.047
			c-5.946,12.659-4.88,25.399,5.122,35.572c10.002,10.174,24.504,15.614,37.447,20.87c12.296,4.992,26.291,9.183,36.889,17.459
			c4.876,3.807,6.309,6.961,7.684,12.779c1.076,4.553,1.499,9.447,0.673,14.071c-0.643,3.592-3.245,9.723-7.485,10.289
			c-8.55,1.141-18.35-3.3-26.343-5.845c-5.865-1.868-12.243-2.578-18.29-3.703c-7.989-1.486-15.996-2.873-24.024-4.127
			c-14.88-2.325-29.972-4.303-45.036-4.833c-10.292-0.361-20.958,1.729-31.093-0.692c-20.213-4.831-12.55-30.978-21.374-44.423
			c-5.298-8.073-15.256-7.947-23.599-5.534c-11.478,3.319-21.605,10.087-30.87,17.43c-12.075,9.567-22.523,21.034-33.251,32.036
			c-10.037,10.293-19.615,20.219-34.989,19.521c-6.724-0.306-13.389-2.181-19.935-3.605c-7.794-1.695-15.576-2.873-23.539-3.38
			c-15.599-0.993-33.258,0.851-47.959-5.453c0.598,2.28,1.196,4.562,1.794,6.842c10.055-19.054,28.155-33.184,35.321-53.863
			c8.142-23.498-12.016-42.689-31.066-52.654c-11.209-5.863-23.588-9.186-35.846-12.019c-5.162-1.192-10.317-2.383-15.491-3.526
			c-4.331-0.956-9.082-1.987-12.362-5.173c-6.967-6.764,0.096-18.133,5.005-23.538c6.03-6.637,13.41-12.242,17.497-20.422
			c9.043-18.096-5.982-32.223-19.34-41.94c-6.596-4.798-13.473-9.676-17.235-17.135c-3.452-6.846-1.987-16.547,1.381-23.145
			c7.063-13.837,25.208-17.507,39.091-19.813c16.247-2.699,32.968-2.835,48.999-6.797c10.996-2.719,21.001-7.112,32.481-8.042
			c12.668-1.027,25.995,1.447,35.25,10.663c7.72,7.686,12.041,18.475,16.851,28.056c5,9.958,10.796,19.56,19.97,26.188
			c20.272,14.646,46.785-2.359,66.582-9.122c15.023-5.131,32.135-6.493,47.872-7.614c16.82-1.198,35.043-1.563,51.017,4.621
			c5.403,2.092,10.982,5.96,13.274,11.486c3.554,8.568,2.144,20.662,0.312,29.481c-2.086,10.044-7.161,18.969-16.338,23.978
			c-5.519,3.011-12.407,3.929-18.52,4.926c-7.72,1.259-15.642,1.364-23.436,0.948c-14.393-0.77-28.483-4.581-42.068-9.199
			c-12.491-4.246-24.655-11.145-37.696-13.408c-23.265-4.041-47.84,5.126-67.022,17.802c-9.763,6.451-18.891,14.318-24.968,24.39
			c-3.505,5.808-6.237,11.98-7.019,18.765c-0.45,3.906-1.404,8.613,0.043,12.429c3.178,8.378,14.023,4.605,20.216,2.555
			c10.334-3.424,18.91-11.28,25.573-19.637c7.037-8.824,12.438-19.088,15.266-30.037c2.788-10.797,1.375-22.15-2.097-32.614
			c-10.108-30.468-40.478-54.716-73.261-51.876c-30.236,2.619-57.666,25.014-61.73,55.718
			C84.696,521.534,94.707,521.453,95.54,515.156L95.54,515.156z"/>
	</g>
</g>
<g>
	<g>
		<path fill="#E6E6E6" d="M931.483,69.447c19.795-10.978,51.206-8.594,68.439,6.524c15.429,13.535,15.743,36.216,16.655,55.089
			c1.014,20.969,0.365,46.379-15.628,61.971c-7.384,7.198-17.401,10.131-27.49,10.331c-7.008,0.138-13.789-1.385-20.735-1.885
			c-10.192-0.733-19.908-6.493-20.087-17.542c-0.152-9.482,7.052-18.764,12.737-25.684c7.198-8.76,15.579-16.548,24.111-23.982
			c7.583-6.606,15.294-13.068,23.88-18.34c19.612-12.043,43.567-18.034,66.442-14.093c23.806,4.102,42.286,19.184,55.002,39.158
			c12.15,19.087,22.65,44.45,18.166,67.471c-2.217,11.378-9.94,21.743-16.587,30.959c-8.011,11.108-17.391,21.288-27.637,30.362
			c-9.244,8.187-19.915,15.783-31.709,19.732c-9.646,3.23-19.36,6.162-28.66,10.331c-19.707,8.833-31.929,25.539-32.366,47.424
			c-0.349,17.35,9.427,30.572,25.398,36.548c15.936,5.962,34.401,4.438,50.883,2.131c7.031-0.983,14.371-2.006,21.076-4.413
			c7.057-2.534,13.865-5.823,20.692-8.906c16.905-7.634,34.351-15.72,52.834-18.559c6.478-0.995,13.772-0.938,19.364,2.854
			c4.758,3.227,5.298,9.683,4.284,14.805c-3.257,16.468-16.903,31.045-28.253,42.59c-10.681,10.865-21.986,20.316-35.85,26.732
			c-19.716,9.126-41.662,14.694-63.396,15.342c-19.549,0.58-40.296-3.686-54.322-18.227c-3.545-3.676-6.008-8.021-8.751-12.284
			c-3.509-5.45-7.562-10.575-11.892-15.392c-8.068-8.978-17.861-16.537-28.539-22.146c-21.783-11.442-47.264-12.686-70.146-3.81
			c-6.654,2.581-12.276,6.913-17.522,11.715c-9.102,8.33-16.143,19.055-19.311,31.03c-4.609,17.427,0.516,35.365,9.183,50.631
			c6.705,11.81,15.814,22.267,25.381,31.822c8.301,8.291,15.44,17.012,20.575,27.631c8.339,17.245,8.463,37.031,1.716,54.771
			c-13.579,35.701-52.771,54.775-89.341,52.938c-6.448-0.324-6.417,9.678,0,10c40.241,2.021,81.349-19.097,97.649-57.035
			c7.567-17.612,8.596-37.229,2.731-55.502c-3.252-10.132-8.643-19.523-15.241-27.832c-8.601-10.829-19.273-19.711-27.587-30.83
			c-10.893-14.569-19.603-32.896-15.983-51.494c2.262-11.627,9.11-21.566,17.728-29.453c5.867-5.368,11.674-8.748,20.107-11.32
			c23.931-7.304,48.705-0.818,68.405,13.812c10.117,7.514,18.451,17.479,25.101,28.108c5.352,8.558,11.68,15.617,20.2,21.136
			c17.128,11.093,39.108,12.915,58.931,11.196c21.777-1.89,43.111-8.325,62.77-17.775c13.475-6.479,24.854-16.907,35.254-27.485
			c12.087-12.295,24.446-26.895,29.431-43.726c4.252-14.365-2.042-28.874-17.268-32.388c-16.882-3.896-35.924,3.797-51.305,9.983
			c-14.529,5.846-28.616,14.194-43.69,18.534c-15.574,4.484-33.497,5.913-49.572,4.278c-14.653-1.49-29.375-8.376-31.442-24.472
			c-1.324-10.307,1.196-21.021,7.12-29.532c5.434-7.808,14.641-12.668,23.216-16.179c9.484-3.882,19.565-6.17,28.99-10.16
			c11.644-4.929,22.01-12.834,31.414-21.163c10.107-8.952,18.986-19.223,27.045-30.029c6.969-9.342,14.122-19.705,17.608-30.931
			c6.919-22.278-1.804-47.775-11.858-67.646c-10.587-20.921-26.193-39.221-47.913-48.939c-21.042-9.417-44.89-9.485-66.761-2.966
			c-21.189,6.316-38.32,19.258-54.683,33.624c-8.55,7.506-16.737,15.495-23.87,24.375c-6.07,7.558-11.88,16.237-13.528,25.974
			c-1.801,10.636,2.374,20.19,11.087,26.354c7.047,4.985,15.642,5.378,23.858,6.51c19.802,2.726,38.977,0.393,53.103-15.23
			c12.901-14.268,15.217-35.114,15.624-53.551c0.364-16.479-0.211-34.122-4.944-49.989c-5.086-17.043-16.975-29.127-33.508-35.351
			c-19.304-7.267-43.592-7.303-61.863,2.829C920.797,63.939,925.84,72.577,931.483,69.447L931.483,69.447z"/>
	</g>
</g>
<g>
	<g>
		<path fill="#E6E6E6" d="M963.585,757.058c0.054-15.125,0.406-30.274,3.518-45.13c2.401-11.476,6.634-24.826,14.12-34.136
			c3.716-4.618,6.877-3.353,12.224-1.408c8.991,3.269,17.769,6.812,27.364,7.875c10.031,1.108,20.48-2.478,26.666-10.624
			c6.919-9.115,7.408-21.698,8.691-32.646c1.434-12.234,3.348-24.932,11.396-34.765c8.539-10.431,20.87-12.191,33.536-12.748
			c12.279-0.54,23.857-1.388,34.787-7.544c10.27-5.785,17.907-15.267,23.678-25.351c12.306-21.505,14.771-52.249,37.831-65.71
			c4.973-2.901,10.788-4.288,16.223-6.048c7.348-2.379,14.782-4.482,22.199-6.633c7.006-2.03,13.996-4.107,20.931-6.373
			c6.325-2.066,12.663-5.499,19.073-7.09c9.695-2.405,18.009-11.749,23.893-19.144c4.774-6.001,8.865-12.474,12.569-19.181
			c3.921-7.098,6.652-14.962,11.718-21.378c7.642-9.681,18.79-15.425,30.472-18.691c10.914-3.052,22.365-3.798,33.649-3.379
			c6.938,0.26,14.268,0.814,20.925,2.955c6.157,1.979,8.771-7.678,2.658-9.643c-11.551-3.713-24.957-3.864-36.93-3.188
			c-17.95,1.015-35.813,5.822-50.074,17.12c-8.38,6.639-13.153,15.42-17.764,24.831c-5.146,10.507-11.323,20.717-19.3,29.328
			c-3.688,3.981-7.845,7.609-12.72,10.054c-1.562,0.783,0.188-0.015-0.729,0.337c-0.294,0.112-0.593,0.211-0.896,0.3
			c-5.307,1.544-10.476,4.141-15.72,5.954c-14.244,4.93-28.866,8.674-43.263,13.118c-11.407,3.521-21.808,6.876-31.008,14.717
			c-10.124,8.628-15.313,21.731-19.929,33.863c-4.57,12.018-8.987,24.038-16.131,34.82c-6.797,10.26-16.836,17.939-28.956,20.506
			c-11.64,2.464-23.744,0.896-35.416,3.501c-12.332,2.753-22.169,11.256-28.263,22.108c-5.935,10.571-7.229,22.984-8.613,34.803
			c-0.947,8.076-1.468,17.142-5.786,24.239c-4.093,6.723-12.175,8.125-19.401,7.576c-12.016-0.91-22.562-9.469-34.53-9.714
			c-12.682-0.261-19.085,16.438-22.941,25.87c-8.663,21.184-9.673,44.041-9.753,66.644
			C953.562,763.508,963.562,763.506,963.585,757.058L963.585,757.058z"/>
	</g>
</g>
<g>
	<g>
		<path fill="#E6E6E6" d="M50.443,831.699c-10.402-3.338-20.949-6.269-31.178-10.115c-7.969-2.998-16.307-6.78-22.009-13.328
			c-13.214-15.179-5.335-39.316,1.607-55.517c7.833-18.281,19.175-34.912,26.063-53.613c6.69-18.162,6.378-36.468-3.732-53.286
			c-12.822-21.327-35.109-32.5-58.769-37.173c-23.413-4.623-47.979-4.178-69.714-15.205c-20.525-10.413-35.086-31.443-44.228-51.937
			c-9.446-21.184-14.068-44.186-17.423-67.016c-2.694-18.34-4.393-36.807-6.66-55.199c-0.789-6.392-10.73-5.3-9.94,1.117
			c5.533,44.876,7.796,92.234,28.781,133.25c10.431,20.389,26.047,39.101,46.72,49.588c21.468,10.893,46.392,10.844,69.595,15.033
			c23.514,4.245,45.924,16.141,56.347,38.726c7.996,17.322,1.819,35.471-5.945,51.615c-8.792,18.274-19.88,35.452-25.726,55.024
			c-5.567,18.64-6.441,39.758,8.488,54.22c13.843,13.409,35.997,17.287,53.675,22.962C52.467,842.792,56.581,833.668,50.443,831.699
			L50.443,831.699z"/>
	</g>
</g>
<g>
	<g>
		<path fill="#E6E6E6" d="M1109.307,740c24.211,1.951,49.345,7.727,72.529-2.467c11.726-5.155,18.427-14.581,23.788-25.76
			c2.391-4.983,4.827-9.773,8.971-13.535c4.073-3.698,9.987-3.803,15.151-4.037c12.529-0.568,23.006-3.687,30.92-14.041
			c7.88-10.312,8.332-24.464,10.191-36.777c3.547-23.469,9.574-45.901,20.809-66.912c5.355-10.018,11.563-19.567,17.958-28.946
			c3.644-5.346-5.026-10.341-8.636-5.047c-13.848,20.312-25.976,41.496-32.876,65.225c-3.45,11.868-5.584,24.09-7.387,36.3
			c-1.897,12.854-2.431,28.103-14.229,36.193c-9.143,6.27-21.25,2.521-31.254,6.257c-11.218,4.188-15.729,15.423-20.711,25.295
			c-12.542,24.854-42.723,22.778-66.349,20.217c-6.29-0.683-12.569-1.455-18.877-1.963
			C1102.875,729.481,1102.925,739.485,1109.307,740L1109.307,740z"/>
	</g>
</g>
<g>
	<g>
		<path fill="#E6E6E6" d="M-47-104c2.501,21.703,2.699,44.016,9.884,64.876c7.04,20.439,24.322,41.731,47.028,44.622
			c9.414,1.198,18.599-4.727,27.321-7.271c11.02-3.214,22.005-3.118,33.259-1.299c21.326,3.447,43.135,12.629,65.01,9.304
			c15.511-2.357,25.991-15.428,33.92-27.786c4.018-6.262,7.937-12.48,13.294-17.708c6.751-6.587,15.523-10.002,24.613-11.918
			c19.069-4.018,38.499,0.263,57.6,1.271c20.044,1.058,37.693-5.83,53.595-17.775c5.089-3.823,0.114-12.512-5.047-8.635
			c-9.652,7.25-19.974,13.125-31.901,15.53c-9.174,1.849-18.765,0.893-27.984-0.061c-22.275-2.304-46.454-4.457-66.969,6.433
			c-16.35,8.678-22.348,25.694-33.832,38.959c-5.67,6.548-13.154,11.428-21.898,12.274c-10.542,1.02-21.308-1.617-31.513-3.92
			c-17.067-3.853-34.885-9.068-52.542-6.829c-8.82,1.119-16.991,3.985-25.223,7.192C13.512-3.582,7.384-4.2-0.307-8.408
			C-34.562-27.151-33.129-70.403-37-104C-37.729-110.329-47.737-110.4-47-104L-47-104z"/>
	</g>
</g>
<g>
	<g>
		<path fill="#E6E6E6" d="M24.122,42.607c10.049-0.028,20.636-1.177,30.366,1.892c8.588,2.709,13.479,11.644,13.904,20.241
			c0.411,8.319-2.517,16.637-5.52,24.26c-3.725,9.457-8.598,18.479-13.334,27.455c-8.901,16.869-19.63,34.515-22.683,53.632
			c-1.143,7.158-1.368,14.805,3.349,20.731c3.706,4.656,9.313,7.188,14.667,9.422c7.687,3.207,24.066,6.27,24.933,16.274
			c0.613,7.081-4.051,15.313-8.338,20.581c-5.281,6.487-11.654,12.103-17.477,18.089c-10.433,10.727-25.879,27.395-18.178,43.639
			c7.667,16.172,26.087,17.288,41.484,14.843c18.458-2.93,36.629-10.707,52.811-19.859c6.49-3.671,12.895-7.844,18.35-12.958
			c5.708-5.352,8.4-13.036,10.367-20.435c4.985-18.75,0.466-37.99-7.284-55.266c-6.422-14.316-15.816-26.866-23.134-40.67
			c-1.134-2.139-1.846-3.661-2.478-5.883c-0.445-1.562-0.258-0.642-0.287-1.761c-0.027-1.081-0.035-0.327,0.158-0.656
			c-0.232,0.396-0.245,0.188,0.519-0.242c1.209-0.682-0.875,0.267,0.579-0.222c0.777-0.261,1.615-0.42,2.406-0.605
			c5.402-1.267,10.849-2.335,16.269-3.521c8.186-1.791,16.786-3.919,23.668-8.928c7.146-5.202,10.934-13.006,12.481-21.559
			c0.739-4.088,0.486-8.303,1.909-12.237c1.087-3.005,3.774-5.452,6.133-7.454c6.004-5.098,13.908-8.224,21.031-11.38
			c11.928-5.285,30.742-11.597,33.141-26.592c1.009-6.306-8.626-9.013-9.643-2.658c-0.999,6.241-6.506,9.719-11.624,12.624
			c-7.197,4.085-15.003,7.049-22.506,10.511c-7.177,3.311-14.339,7.121-19.997,12.74c-6.454,6.41-6.776,13.333-8.088,21.789
			c-1.279,8.249-5.024,14.536-12.483,18.408c-7.978,4.142-17.703,5.314-26.391,7.163c-5.625,1.196-13.456,1.845-16.378,7.745
			c-2.342,4.727-0.665,9.761,1.264,14.292c5.737,13.471,15.351,25.283,22.017,38.327c8.414,16.463,13.58,34.996,9.074,53.379
			c-1.857,7.575-4.325,13.137-9.945,17.944c-5.925,5.068-12.982,8.963-19.856,12.565c-15.907,8.335-34.211,15.633-52.333,16.54
			c-7.236,0.362-13.539-0.837-18.953-5.879c-5.671-5.282-4.861-12.056-1.536-18.401c8.022-15.305,23.454-25.032,33.738-38.589
			c8.334-10.988,14.782-28.555,2.677-39.243c-9.158-8.086-22.163-9.093-32.204-15.638c-10.442-6.807-1.62-26.412,2.343-35.568
			c7.893-18.235,18.552-35.126,26.64-53.273c6.756-15.158,12.138-31.652,5.104-47.633c-8.882-20.176-32.49-18.023-50.735-17.971
			C17.674,32.625,17.672,42.625,24.122,42.607L24.122,42.607z"/>
	</g>
</g>
<g>
	<g>
		<path fill="none" d="M96.54,505.156c-0.833,6.297-10.844,6.378-10.001,0.005c4.064-30.704,31.494-53.099,61.73-55.718
			c32.783-2.84,63.153,21.408,73.261,51.876c3.472,10.464,4.885,21.817,2.097,32.614c-2.828,10.949-8.229,21.213-15.266,30.037
			c-6.663,8.356-15.239,16.213-25.573,19.637c-6.193,2.051-17.038,5.823-20.216-2.555c-1.447-3.815-0.493-8.522-0.043-12.429
			c0.782-6.784,3.514-12.957,7.019-18.765c6.077-10.071,15.205-17.938,24.968-24.39c19.182-12.676,43.757-21.843,67.022-17.802
			c13.041,2.264,25.205,9.162,37.696,13.408c13.585,4.618,27.675,8.43,42.068,9.199c7.794,0.416,15.716,0.311,23.436-0.948
			c6.113-0.997,13.001-1.915,18.52-4.926c9.177-5.009,14.252-13.934,16.338-23.978c1.832-8.819,3.242-20.913-0.312-29.481
			c-2.292-5.526-7.871-9.395-13.274-11.486c-15.974-6.185-34.197-5.819-51.017-4.621c-15.737,1.121-32.849,2.483-47.872,7.614
			c-19.797,6.763-46.31,23.768-66.582,9.122c-9.174-6.628-14.97-16.229-19.97-26.188c-4.81-9.581-9.131-20.37-16.851-28.056
			c-9.255-9.216-22.582-11.69-35.25-10.663c-11.48,0.93-21.485,5.323-32.481,8.042c-16.031,3.962-32.752,4.098-48.999,6.797
			c-13.883,2.307-32.028,5.977-39.091,19.813c-3.368,6.598-4.833,16.299-1.381,23.145c3.762,7.459,10.639,12.337,17.235,17.135
			c13.358,9.718,28.383,23.845,19.34,41.94c-4.087,8.18-11.467,13.785-17.497,20.422c-4.909,5.405-11.972,16.774-5.005,23.538
			c3.28,3.186,8.031,4.217,12.362,5.173c5.174,1.144,10.329,2.334,15.491,3.526c12.258,2.833,24.637,6.155,35.846,12.019
			c19.05,9.965,39.208,29.156,31.066,52.654c-7.166,20.68-25.266,34.81-35.321,53.863c-0.598-2.28-1.196-4.562-1.794-6.842
			c14.701,6.304,32.36,4.46,47.959,5.453c7.963,0.507,15.745,1.685,23.539,3.38c6.546,1.425,13.211,3.3,19.935,3.605
			c15.374,0.697,24.952-9.229,34.989-19.521c10.728-11.002,21.176-22.469,33.251-32.036c9.265-7.343,19.392-14.11,30.87-17.43
			c8.343-2.413,18.301-2.539,23.599,5.534c8.824,13.445,1.161,39.592,21.374,44.423c10.135,2.421,20.801,0.331,31.093,0.692
			c15.064,0.53,30.156,2.508,45.036,4.833c8.028,1.254,16.035,2.641,24.024,4.127c6.047,1.125,12.425,1.835,18.29,3.703
			c7.993,2.545,17.793,6.985,26.343,5.845c4.24-0.566,6.843-6.697,7.485-10.289c0.826-4.624,0.403-9.519-0.673-14.071
			c-1.375-5.818-2.808-8.973-7.684-12.779c-10.598-8.276-24.593-12.467-36.889-17.459c-12.943-5.256-27.445-10.696-37.447-20.87
			c-10.002-10.173-11.068-22.913-5.122-35.572c2.74-5.834,11.36-0.754,8.635,5.047c-3.217,6.848-3.873,14.738,1.215,20.867
			c5.643,6.797,13.65,11.146,21.52,14.873c9.254,4.383,18.861,7.927,28.315,11.84c8.471,3.505,17.39,7.034,24.763,12.6
			c4.565,3.447,8.709,7.44,10.696,12.943c2.99,8.283,4.578,19.004,1.738,27.529c-3.02,9.065-10.341,16.31-20.406,15.33
			c-9.187-0.895-17.717-4.027-26.505-6.609c-7.194-2.115-15.056-2.967-22.437-4.289c-7.402-1.328-14.816-2.599-22.258-3.687
			c-14.426-2.11-29.289-4.243-43.904-3.923c-9.919,0.217-21.08,1.853-30.624-1.68c-9.758-3.611-16.2-11.442-18.936-21.445
			c-2.181-7.971-1.82-16.808-4.918-24.502c-3.483-8.649-15.748-3.167-21.599-0.318c-22.332,10.868-38.402,30.611-55.683,47.802
			c-7.944,7.903-16.776,16.261-28.366,17.938c-11.052,1.6-21.623-1.104-32.38-3.406c-12.706-2.719-25.248-3.19-38.186-3.733
			c-12.128-0.508-24.42-1.271-35.701-6.107c-2.582-1.107-2.942-4.666-1.794-6.842c5.759-10.913,14.064-20.147,21.469-29.932
			c6.41-8.468,14.617-18.952,14.37-30.178c-0.291-13.258-12.23-23.559-22.812-29.837c-11.916-7.071-25.215-10.851-38.641-13.899
			c-5.55-1.261-11.134-2.456-16.665-3.797c-4.162-1.01-8.833-2.203-12.339-4.79c-7.92-5.845-10.711-16.29-7.514-25.645
			c3.06-8.955,9.738-15.261,16.261-21.791c5.698-5.703,12.125-12.564,9.683-21.335c-2.111-7.58-8.756-12.597-14.84-17.038
			c-6.938-5.066-14.232-9.984-19.408-16.969c-9.986-13.475-7.619-34.383,4.144-46.143c11.565-11.559,28.791-15.115,44.404-17.255
			c15.676-2.148,32.537-2.072,47.655-7.117c22.347-7.456,51.108-13.653,70.842,3.688c8.237,7.238,13.419,16.993,18.216,26.686
			c4.753,9.604,9.446,20.755,18.053,27.615C238,467,246,466.5,256.734,463.517C270,463,281.047,456.753,293,454
			c15.287-3.521,29.621-8.521,45.261-9.375c16.884-0.921,35.312-0.973,51.223,5.518c6.603,2.693,12.901,6.745,16.812,12.865
			c4.834,7.564,5.078,16.994,4.696,25.707c-0.941,21.448-9.983,42.417-32.536,47.983c-28.804,7.108-57.563,2.807-85.142-7.126
			c-11.942-4.303-24.226-11.574-37.048-12.579c-11.794-0.923-23.526,1.334-34.532,5.562c-21.868,8.4-48.016,25.477-49.729,51.157
			c-0.08,1.203-0.197,2.438-0.093,3.644c0.093,1.082,0.438,0.382-0.481-0.415c-1.662-1.44-0.96-0.478,0.977-0.911
			c4.585-1.026,9.076-2.209,13.127-4.67c9.733-5.914,17.371-15.176,22.628-25.195c5.012-9.552,8.289-20.109,6.504-30.973
			c-1.992-12.126-7.262-23.735-15.34-33.048c-15.441-17.8-37.721-27.481-61.041-20.771
			C117.922,467.231,99.437,483.267,96.54,505.156L96.54,505.156z"/>
		<text transform="matrix(0.976 -0.26 0.2574 0.9663 119.1909 403.0518)" font-family="'AmaticSC-Regular'" font-size="65">I</text>
		<text transform="matrix(0.9947 -0.175 0.1733 0.9849 135.2974 398.8193)" font-family="'AmaticSC-Regular'" font-size="65">L</text>
		<text transform="matrix(1.0099 0.0156 -0.0155 0.9999 150.4326 396.7695)" font-family="'AmaticSC-Regular'" font-size="65">L</text>
		<text transform="matrix(0.9496 0.344 -0.3406 0.9402 163.8447 397.4434)" font-family="'AmaticSC-Regular'" font-size="65">U</text>
		<text transform="matrix(0.7785 0.6434 -0.6371 0.7708 182.7896 406.9453)" font-family="'AmaticSC-Regular'" font-size="65">S</text>
		<text transform="matrix(0.6379 0.7831 -0.7753 0.6316 195.3535 419.4004)" font-family="'AmaticSC-Regular'" font-size="65">T</text>
		<text transform="matrix(0.7678 0.6562 -0.6497 0.7602 209.647 440.248)" font-family="'AmaticSC-Regular'" font-size="65">R</text>
		<text transform="matrix(1.0093 -0.038 0.0376 0.9993 243.6494 462.4902)" font-family="'AmaticSC-Regular'" font-size="65">A</text>
		<text transform="matrix(0.9681 -0.2878 0.2849 0.9585 275.6128 459.1816)" font-family="'AmaticSC-Regular'" font-size="65">T</text>
		<text transform="matrix(0.9733 -0.2699 0.2672 0.9636 294.4634 453.9199)" font-family="'AmaticSC-Regular'" font-size="65">O</text>
		<text transform="matrix(0.9928 -0.1859 0.184 0.9829 317.2871 448.123)" font-family="'AmaticSC-Regular'" font-size="65">R</text>
	</g>
</g>
<g>
	<g>
		<path fill="none" d="M917.15,145.78c-5.644,3.13-10.687-5.508-5.048-8.635c18.271-10.132,42.56-10.096,61.863-2.829
			c16.533,6.224,28.422,18.308,33.508,35.351c4.733,15.867,5.309,33.51,4.944,49.989c-0.407,18.437-2.723,39.283-15.624,53.551
			c-14.126,15.623-33.301,17.956-53.103,15.23c-8.217-1.132-16.812-1.525-23.858-6.51c-8.713-6.164-12.888-15.718-11.087-26.354
			c1.648-9.737,7.458-18.416,13.528-25.974c7.133-8.88,15.32-16.869,23.87-24.375c16.362-14.366,33.493-27.308,54.683-33.624
			c21.871-6.519,45.719-6.451,66.761,2.966c21.72,9.718,37.326,28.018,47.913,48.939c10.055,19.871,18.777,45.368,11.858,67.646
			c-3.486,11.226-10.64,21.589-17.608,30.931c-8.059,10.806-16.938,21.077-27.045,30.029c-9.404,8.329-19.771,16.233-31.414,21.163
			c-9.425,3.99-19.506,6.277-28.99,10.16c-8.575,3.511-17.782,8.371-23.216,16.179c-5.924,8.512-8.444,19.226-7.12,29.532
			c2.067,16.096,16.789,22.981,31.442,24.472c16.075,1.635,33.998,0.206,49.572-4.278c15.074-4.34,29.161-12.688,43.69-18.534
			c15.381-6.187,63.114-39.868,79.996-35.972c15.226,3.514,44.252,36.635,40,51c-12,36.666-54.913,37.705-67,50
			c-10.399,10.578-35.634,22.108-49.108,28.587c-19.658,9.45-40.992,15.886-62.77,17.775c-19.822,1.719-41.803-0.104-58.931-11.196
			c-8.521-5.519-14.849-12.578-20.2-21.136c-6.649-10.63-29.874,13.483-39.991,5.97c-19.7-14.63-29.584-55.193-53.515-47.89
			c-8.434,2.572-14.24,5.952-20.107,11.32c-8.617,7.887-15.466,17.826-17.728,29.453c-3.619,18.598,5.091,36.925,15.983,51.494
			c8.313,11.119,18.986,20.001,27.587,30.83c6.599,8.309,11.989,17.7,15.241,27.832c5.864,18.272,4.836,37.89-2.731,55.502
			c-16.301,37.938-57.408,59.057-97.649,57.035c-6.417-0.322-6.448-10.324,0-10c36.57,1.837,75.762-17.237,89.341-52.938
			c6.747-17.74,6.623-37.526-1.716-54.771c-5.135-10.619-12.274-19.34-20.575-27.631c-9.566-9.556-18.676-20.013-25.381-31.822
			c-8.667-15.266-13.792-33.204-9.183-50.631c3.168-11.976,10.209-22.7,19.311-31.03c5.246-4.802,8.468-23.172,15.122-25.753
			c22.883-8.876,51.217-4.442,73,7c6.332,3.326,4.337,16.733,8,25c2.514,5.673,10.716,6.346,14,10
			c4.329,4.816,18.16,12.549,21.669,17.999c2.743,4.264,31.002,12.664,38,14.666c41,2,46.117,2.58,65.666,2c8-1.333,24-6,24-6
			c13.863-6.416,94.331-24.999,122.331-114.332c2-37.333-10.59-51.532-7.333-68c1.014-5.122-26.575,82.893-31.333,79.667
			c-5.592-3.792-41.621,14.579-48.099,15.574c-18.483,2.839-35.929,10.925-52.834,18.559c-6.827,3.083-13.636,6.372-20.692,8.906
			c-6.705,2.407-14.045,3.43-21.076,4.413c-16.481,2.307-34.947,3.831-50.883-2.131c-15.972-5.976-25.747-19.198-25.398-36.548
			c0.438-21.886,12.659-38.591,32.366-47.424c9.3-4.17,19.015-7.102,28.66-10.332c11.794-3.949,22.465-11.544,31.709-19.731
			c10.246-9.074,19.626-19.254,27.637-30.362c6.646-9.216,14.37-19.581,16.587-30.959c4.484-23.021-6.016-48.384-18.166-67.471
			c-12.716-19.974-31.196-35.056-55.002-39.158c-22.875-3.941-46.83,2.05-66.442,14.093c-8.586,5.272-16.297,11.734-23.88,18.34
			c-8.532,7.434-16.913,15.222-24.111,23.982c-5.686,6.92-12.89,16.202-12.737,25.684c0.179,11.049,9.895,16.809,20.087,17.542
			c6.946,0.5,13.728,2.023,20.735,1.885c10.089-0.2,20.106-3.133,27.49-10.331c15.993-15.592,16.642-41.002,15.628-61.971
			c-0.912-18.873-1.227-41.554-16.655-55.089C968.356,137.186,936.945,134.803,917.15,145.78L917.15,145.78z"/>
		<text transform="matrix(0.9152 -0.4272 0.423 0.9061 881.2285 447.6768)" font-family="'AmaticSC-Regular'" font-size="65"> </text>
		<text transform="matrix(0.994 -0.179 0.1772 0.9842 889.5107 443.7471)" font-family="'AmaticSC-Regular'" font-size="65"> </text>
		<text transform="matrix(1.0098 -0.018 0.0178 0.9998 900.1982 442.873)" font-family="'AmaticSC-Regular'" font-size="65"> </text>
		<text transform="matrix(1.0044 0.106 -0.1049 0.9945 911.3604 443.5684)" font-family="'AmaticSC-Regular'" font-size="65"> </text>
		<text transform="matrix(0.9738 0.2681 -0.2654 0.9641 921.7627 445.748)" font-family="'AmaticSC-Regular'" font-size="65"> </text>
		<text transform="matrix(0.8301 0.5754 -0.5697 0.8219 927.4766 449.292)" font-family="'AmaticSC-Regular'" font-size="65">W</text>
		<text transform="matrix(0.7431 0.684 -0.6773 0.7357 949.6865 468.9795)" font-family="'AmaticSC-Regular'" font-size="65">E</text>
		<text transform="matrix(0.7528 0.6733 -0.6667 0.7454 963.6123 483.418)" font-family="'AmaticSC-Regular'" font-size="65">B</text>
		<text transform="matrix(0.8921 0.4736 -0.4689 0.8833 986.6699 502.6133)" font-family="'AmaticSC-Regular'" font-size="65"> </text>
		<text transform="matrix(0.9644 0.3001 -0.2971 0.9548 1001.8311 513.0391)" font-family="'AmaticSC-Regular'" font-size="65">D</text>
		<text transform="matrix(1.0083 0.0591 -0.0585 0.9983 1033.6982 521.792)" font-family="'AmaticSC-Regular'" font-size="65">E</text>
		<text transform="matrix(1.0093 -0.0381 0.0378 0.9993 1055.8564 523.7324)" font-family="'AmaticSC-Regular'" font-size="65">V</text>
		<text transform="matrix(0.9953 -0.1717 0.17 0.9854 1084.623 523.7617)" font-family="'AmaticSC-Regular'" font-size="65">E</text>
		<text transform="matrix(0.9583 -0.3191 0.3159 0.9488 1108.0361 520.0381)" font-family="'AmaticSC-Regular'" font-size="65">L</text>
		<text transform="matrix(0.9104 -0.4374 0.433 0.9014 1129.498 513.6436)" font-family="'AmaticSC-Regular'" font-size="65">O</text>
		<text transform="matrix(0.8529 -0.5409 0.5356 0.8445 1156.1445 501.793)" font-family="'AmaticSC-Regular'" font-size="65">P</text>
		<text transform="matrix(0.7738 -0.6491 0.6427 0.7662 1177.2324 489.0811)" font-family="'AmaticSC-Regular'" font-size="65">E</text>
		<text transform="matrix(0.6641 -0.761 0.7535 0.6575 1195.9727 474.1768)" font-family="'AmaticSC-Regular'" font-size="65">R</text>
	</g>
</g>
<g>
	<g>
		<path fill="none" d="M936.817,62.114c-5.644,3.13-10.687-5.508-5.048-8.635c18.271-10.132,42.56-10.096,61.863-2.829
			c16.533,6.224,28.422,18.308,33.508,35.351c4.733,15.867,5.309,33.51,4.944,49.989c-0.407,18.437-2.723,39.283-15.624,53.551
			c-14.126,15.623-33.301,17.956-53.103,15.23c-8.217-1.132-16.812-1.525-23.858-6.51c-8.713-6.164-12.888-15.718-11.087-26.354
			c1.648-9.737,7.458-18.416,13.528-25.974c7.133-8.88,15.32-16.869,23.87-24.375c16.362-14.366,33.493-27.308,54.683-33.624
			c21.871-6.519,45.719-6.451,66.761,2.966c21.72,9.718,37.326,28.018,47.913,48.939c10.055,19.871,18.777,45.368,11.858,67.646
			c-3.486,11.226-10.64,21.589-17.608,30.931c-8.059,10.806-16.938,21.077-27.045,30.029c-9.404,8.329-19.771,16.234-31.414,21.163
			c-9.425,3.99-19.506,6.278-28.99,10.16c-8.575,3.511-17.782,8.372-23.216,16.179c-5.924,8.512-38.743,31.58-37.419,41.886
			c2.067,16.095,47.088,10.627,61.741,12.118c16.075,1.635,33.998,0.206,49.572-4.278c15.074-4.34,29.161-12.688,43.69-18.534
			c15.381-6.187,34.423-13.88,51.305-9.983c3.024-2.655,67.276-13.021,63.024,1.345c-4.984,16.831-63.101,62.473-75.188,74.768
			c-10.399,10.578-21.779,21.008-35.254,27.486c-19.658,9.449-40.992,15.885-62.77,17.775c-19.822,1.719-41.803-0.104-58.931-11.197
			c-8.521-5.518-14.849-12.578-20.2-21.135c-6.649-10.631-14.983-20.596-25.101-28.109c-19.7-14.629-44.475-21.115-68.405-13.811
			c-8.434,2.572-14.24,5.951-20.107,11.32c-8.617,7.887-15.466,17.826-17.728,29.453c-3.619,18.598,5.091,36.924,15.983,51.494
			c8.313,11.119,18.986,20,27.587,30.83c6.599,8.309,11.989,17.699,15.241,27.832c5.864,18.271,4.836,37.889-2.731,55.502
			c-16.301,37.938-57.408,59.057-97.649,57.035c-6.417-0.322-6.448-10.324,0-10c36.57,1.836,75.762-17.238,89.341-52.939
			c6.747-17.74,6.623-37.525-1.716-54.771c-5.135-10.619-12.274-19.34-20.575-27.631c-9.566-9.555-18.676-20.012-25.381-31.822
			c-8.667-15.266-13.792-33.203-9.183-50.631c3.168-11.975,10.209-22.699,19.311-31.029c5.246-4.803,10.868-9.135,17.522-11.715
			c22.883-8.876,48.363-7.633,70.146,3.809c10.678,5.609,20.471,13.17,28.539,22.146c4.329,4.816,8.383,9.941,11.892,15.393
			c2.743,4.264,5.206,8.607,8.751,12.283c14.026,14.541,34.773,18.807,54.322,18.227c21.734-0.646,43.681-6.215,63.396-15.342
			c13.863-6.416,25.169-15.867,35.85-26.732c11.35-11.545,24.996-26.121,28.253-42.589c1.014-5.122,0.474-11.578-4.284-14.805
			c-5.592-3.792-12.887-3.849-19.364-2.854c-18.483,2.839-35.929,10.925-52.834,18.559c-6.827,3.083-13.636,6.373-20.692,8.906
			c-6.705,2.408-14.045,3.43-21.076,4.414c-16.481,2.307-34.947,3.83-50.883-2.131c-15.972-5.977-25.747-19.199-25.398-36.548
			c0.438-21.886,12.659-38.591,32.366-47.424c9.3-4.169,19.015-7.101,28.66-10.331c11.794-3.949,22.465-11.545,31.709-19.732
			c10.246-9.074,19.626-19.254,27.637-30.362c6.646-9.216,14.37-19.581,16.587-30.959c4.484-23.021-6.016-48.384-18.166-67.471
			c-12.716-19.974-31.196-35.056-55.002-39.158c-22.875-3.941-46.83,2.05-66.442,14.093c-8.586,5.272-16.297,11.734-23.88,18.34
			c-8.532,7.434-16.913,15.222-24.111,23.982c-5.686,6.92-12.89,16.202-12.737,25.684c0.179,11.049,9.895,16.809,20.087,17.542
			c6.946,0.5,13.728,2.023,20.735,1.885c10.089-0.2,20.106-3.133,27.49-10.331c15.993-15.592,16.642-41.002,15.628-61.971
			c-0.912-18.873-1.227-41.554-16.655-55.089C988.023,53.52,956.612,51.136,936.817,62.114L936.817,62.114z"/>
		<text transform="matrix(1.0099 -0.0118 0.0117 0.9999 1021.1211 369.7964)" font-family="'AmaticSC-Regular'" font-size="63">D</text>
		<text transform="matrix(1.0089 -0.0462 0.0458 0.999 1045.9707 370.8867)" font-family="'AmaticSC-Regular'" font-size="63">E</text>
		<text transform="matrix(0.9943 -0.1776 0.1758 0.9844 1067.3916 370.5664)" font-family="'AmaticSC-Regular'" font-size="63">S</text>
		<text transform="matrix(0.9507 -0.341 0.3376 0.9413 1091.5244 365.7466)" font-family="'AmaticSC-Regular'" font-size="63">I</text>
		<text transform="matrix(0.912 -0.4341 0.4298 0.9029 1110.1846 359.1665)" font-family="'AmaticSC-Regular'" font-size="63">G</text>
		<text transform="matrix(0.9354 -0.3811 0.3773 0.9261 1133.3682 348.439)" font-family="'AmaticSC-Regular'" font-size="63">N</text>
		<text transform="matrix(0.9856 -0.2207 0.2185 0.9758 1156.1406 340.061)" font-family="'AmaticSC-Regular'" font-size="63">E</text>
		<text transform="matrix(1.0034 -0.115 0.1138 0.9935 1172.2451 337.1426)" font-family="'AmaticSC-Regular'" font-size="63">R</text>
	</g>
</g>
<g>
	<g>
		<path fill="#E6E6E6" d="M-91.928,455.694c20.107-8.543,41.45-15.051,59.423-27.849c17.609-12.538,33.138-35.142,29.48-57.737
			c-1.517-9.368-9.799-16.5-14.709-24.144c-6.202-9.66-9.22-20.223-10.662-31.53c-2.732-21.431-0.101-44.946-9.483-64.985
			c-6.652-14.209-22.155-20.559-36.254-24.664c-7.143-2.08-14.216-4.079-20.746-7.736c-8.23-4.61-13.988-12.056-18.399-20.232
			c-9.254-17.151-10.649-36.998-15.091-55.603c-4.66-19.522-16.263-34.5-32.221-46.368c-5.108-3.799-12.033,3.432-6.853,7.285
			c9.686,7.204,18.244,15.44,23.926,26.198c4.371,8.275,6.169,17.746,7.866,26.856c4.096,22.017,8.877,45.814,25.13,62.408
			c12.952,13.223,30.971,14.157,46.944,21.417c7.885,3.584,14.685,9.38,17.973,17.527c3.962,9.82,4.481,20.894,5.162,31.332
			c1.137,17.461,1.18,36.025,8.326,52.327c3.572,8.142,8.633,15.167,14.04,22.153c5.324,6.878,6.467,12.931,4.608,21.498
			c-8.276,38.16-50.164,49.031-81.291,62.257C-100.623,448.595-97.857,458.213-91.928,455.694L-91.928,455.694z"/>
	</g>
</g>
</svg>
